<svg width="160" height="47" viewBox="0 0 160 47" fill="none" xmlns="http://www.w3.org/2000/svg">
<path d="M21.7588 0.569092H159.722V46.8372H0.727875L21.7588 0.569092Z" fill="white"/>
<path d="M63.3179 23.7864C62.9446 23.7864 62.5246 23.8864 62.0579 24.0864C61.5912 24.2731 61.0046 24.6464 60.2979 25.2064V32.3464H58.6579V22.4464H60.2179V23.8264C60.9246 23.2398 61.5512 22.8331 62.0979 22.6064C62.6446 22.3664 63.1846 22.2464 63.7179 22.2464C64.3446 22.2464 64.8646 22.3931 65.2779 22.6864C65.6912 22.9664 65.9979 23.3731 66.1979 23.9064C66.9312 23.2798 67.5846 22.8464 68.1579 22.6064C68.7446 22.3664 69.3179 22.2464 69.8779 22.2464C70.7579 22.2464 71.4312 22.5398 71.8979 23.1264C72.3646 23.6998 72.5979 24.5198 72.5979 25.5864V32.3464H70.9579V25.8264C70.9579 24.4664 70.4646 23.7864 69.4779 23.7864C69.1046 23.7864 68.6779 23.8864 68.1979 24.0864C67.7312 24.2731 67.1446 24.6464 66.4379 25.2064C66.4512 25.2598 66.4579 25.3198 66.4579 25.3864C66.4579 25.4531 66.4579 25.5198 66.4579 25.5864V32.3464H64.8179V25.8264C64.8179 24.4664 64.3179 23.7864 63.3179 23.7864ZM87.8807 26.7864V27.9864C87.8807 29.3998 87.5141 30.5131 86.7807 31.3264C86.0607 32.1398 85.0274 32.5464 83.6807 32.5464C82.3474 32.5464 81.3141 32.1398 80.5807 31.3264C79.8474 30.5131 79.4807 29.3998 79.4807 27.9864V26.7864C79.4807 25.3998 79.8407 24.2998 80.5607 23.4864C81.2941 22.6598 82.3341 22.2464 83.6807 22.2464C85.0274 22.2464 86.0607 22.6598 86.7807 23.4864C87.5141 24.2998 87.8807 25.3998 87.8807 26.7864ZM86.1807 26.7864C86.1807 25.8398 85.9674 25.0998 85.5407 24.5664C85.1141 24.0198 84.4941 23.7464 83.6807 23.7464C82.8807 23.7464 82.2607 24.0198 81.8207 24.5664C81.3941 25.0998 81.1807 25.8398 81.1807 26.7864V27.9864C81.1807 28.9731 81.3941 29.7331 81.8207 30.2664C82.2607 30.7998 82.8807 31.0664 83.6807 31.0664C84.4941 31.0664 85.1141 30.7998 85.5407 30.2664C85.9674 29.7331 86.1807 28.9731 86.1807 27.9864V26.7864ZM100.881 32.3464V30.9664C100.268 31.5531 99.7077 31.9664 99.201 32.2064C98.7077 32.4331 98.1944 32.5464 97.661 32.5464C96.6077 32.5464 95.7944 32.1464 95.221 31.3464C94.661 30.5464 94.381 29.4264 94.381 27.9864V26.8264C94.381 25.4264 94.7277 24.3131 95.421 23.4864C96.1277 22.6598 97.1477 22.2464 98.481 22.2464C98.8677 22.2464 99.2544 22.2864 99.641 22.3664C100.028 22.4464 100.414 22.5598 100.801 22.7064V17.5464H102.441V32.3464H100.881ZM96.081 27.9864C96.081 29.0264 96.241 29.7931 96.561 30.2864C96.8944 30.7664 97.3877 31.0064 98.041 31.0064C98.4277 31.0064 98.8277 30.9131 99.241 30.7264C99.6544 30.5264 100.174 30.1198 100.801 29.5064V24.2264C100.414 24.0531 100.041 23.9331 99.681 23.8664C99.321 23.7864 98.9677 23.7464 98.621 23.7464C97.7144 23.7464 97.061 24.0198 96.661 24.5664C96.2744 25.1131 96.081 25.8664 96.081 26.8264V27.9864ZM117.154 31.7664C116.554 32.0598 115.954 32.2598 115.354 32.3664C114.754 32.4864 114.201 32.5464 113.694 32.5464C112.268 32.5464 111.201 32.1398 110.494 31.3264C109.801 30.5131 109.454 29.3998 109.454 27.9864V26.7864C109.454 25.4131 109.801 24.3131 110.494 23.4864C111.201 22.6598 112.194 22.2464 113.474 22.2464C114.154 22.2464 114.774 22.3864 115.334 22.6664C115.908 22.9331 116.361 23.3464 116.694 23.9064C117.041 24.4531 117.214 25.1598 117.214 26.0264C117.214 26.5864 117.134 27.2264 116.974 27.9464H111.074V27.9864C111.074 28.9998 111.281 29.7664 111.694 30.2864C112.121 30.8064 112.801 31.0664 113.734 31.0664C114.161 31.0664 114.628 31.0131 115.134 30.9064C115.654 30.7998 116.161 30.6331 116.654 30.4064L117.154 31.7664ZM113.474 23.6864C112.701 23.6864 112.114 23.9398 111.714 24.4464C111.328 24.9398 111.114 25.6398 111.074 26.5464H115.554C115.594 26.3064 115.614 26.0798 115.614 25.8664C115.614 25.1198 115.401 24.5731 114.974 24.2264C114.561 23.8664 114.061 23.6864 113.474 23.6864ZM124.032 29.9464V17.5464H125.672V29.8664C125.672 30.2264 125.726 30.4998 125.832 30.6864C125.952 30.8598 126.186 30.9464 126.532 30.9464H126.852V32.4464H126.392C125.512 32.4464 124.899 32.2131 124.552 31.7464C124.206 31.2798 124.032 30.6798 124.032 29.9464ZM135.746 31.0864C137.079 31.0864 137.746 30.6331 137.746 29.7264C137.746 29.3398 137.626 29.0331 137.386 28.8064C137.146 28.5798 136.706 28.3864 136.066 28.2264L134.966 27.9464C134.153 27.7464 133.546 27.3998 133.146 26.9064C132.746 26.3998 132.546 25.7998 132.546 25.1064C132.546 24.5998 132.659 24.1331 132.886 23.7064C133.113 23.2664 133.473 22.9131 133.966 22.6464C134.459 22.3798 135.099 22.2464 135.886 22.2464C136.393 22.2464 136.906 22.3064 137.426 22.4264C137.959 22.5331 138.499 22.7198 139.046 22.9864L138.526 24.3664C137.553 23.9264 136.673 23.7064 135.886 23.7064C134.726 23.7064 134.146 24.1398 134.146 25.0064C134.146 25.3398 134.253 25.6264 134.466 25.8664C134.679 26.1064 135.079 26.2998 135.666 26.4464L136.766 26.7264C137.646 26.9398 138.293 27.2864 138.706 27.7664C139.119 28.2464 139.326 28.8664 139.326 29.6264C139.326 30.1731 139.206 30.6731 138.966 31.1264C138.739 31.5664 138.366 31.9131 137.846 32.1664C137.339 32.4198 136.653 32.5464 135.786 32.5464C135.213 32.5464 134.639 32.4864 134.066 32.3664C133.506 32.2464 132.926 32.0531 132.326 31.7864L132.766 30.4264C133.339 30.6531 133.859 30.8198 134.326 30.9264C134.793 31.0331 135.266 31.0864 135.746 31.0864Z" fill="black"/>
</svg>
