<svg width="218" height="47" viewBox="0 0 218 47" fill="none" xmlns="http://www.w3.org/2000/svg">
<path d="M0.856537 46.5L26.4178 1.23193H217.381V46.5H0.856537Z" fill="black" stroke="white"/>
<path d="M115.947 27.1292C115.947 28.1026 116.16 28.9026 116.587 29.5292C117.013 30.1426 117.713 30.4492 118.687 30.4492C119.087 30.4492 119.5 30.3959 119.927 30.2892C120.367 30.1826 120.907 30.0026 121.547 29.7492L122.287 31.8292C121.567 32.1492 120.9 32.3759 120.287 32.5092C119.687 32.6426 119.107 32.7092 118.547 32.7092C117.427 32.7092 116.487 32.4692 115.727 31.9892C114.98 31.5092 114.42 30.8492 114.047 30.0092C113.673 29.1692 113.487 28.2092 113.487 27.1292V24.2692C113.487 23.1892 113.673 22.2292 114.047 21.3892C114.42 20.5492 114.98 19.8959 115.727 19.4292C116.487 18.9492 117.427 18.7092 118.547 18.7092C119.093 18.7092 119.66 18.7759 120.247 18.9092C120.833 19.0292 121.473 19.2426 122.167 19.5492L121.427 21.6692C120.813 21.4159 120.3 21.2359 119.887 21.1292C119.473 21.0226 119.073 20.9692 118.687 20.9692C117.713 20.9692 117.013 21.2759 116.587 21.8892C116.16 22.5026 115.947 23.2959 115.947 24.2692V27.1292ZM136.4 26.8292V28.0292C136.4 29.4426 136.013 30.5759 135.24 31.4292C134.466 32.2826 133.373 32.7092 131.96 32.7092C130.546 32.7092 129.453 32.2826 128.68 31.4292C127.906 30.5759 127.52 29.4426 127.52 28.0292V26.8292C127.52 25.4159 127.9 24.2892 128.66 23.4492C129.433 22.5959 130.533 22.1692 131.96 22.1692C133.386 22.1692 134.48 22.5959 135.24 23.4492C136.013 24.2892 136.4 25.4159 136.4 26.8292ZM134.04 26.8292C134.04 26.0159 133.86 25.3826 133.5 24.9292C133.14 24.4626 132.626 24.2292 131.96 24.2292C131.293 24.2292 130.78 24.4626 130.42 24.9292C130.06 25.3826 129.88 26.0159 129.88 26.8292V28.0292C129.88 28.8426 130.06 29.4826 130.42 29.9492C130.78 30.4159 131.293 30.6492 131.96 30.6492C132.626 30.6492 133.14 30.4159 133.5 29.9492C133.86 29.4826 134.04 28.8426 134.04 28.0292V26.8292ZM147.938 24.3092C147.605 24.3092 147.225 24.3892 146.798 24.5492C146.372 24.7092 145.865 25.0226 145.278 25.4892V32.5092H142.978V22.3692H145.158V23.7292C145.785 23.1826 146.378 22.7892 146.938 22.5492C147.498 22.2959 148.065 22.1692 148.638 22.1692C149.612 22.1692 150.352 22.4826 150.858 23.1092C151.365 23.7226 151.618 24.5892 151.618 25.7092V32.5092H149.318V25.9892C149.318 24.8692 148.858 24.3092 147.938 24.3092ZM164.758 32.1692C164.411 32.3292 164.011 32.4559 163.558 32.5492C163.105 32.6559 162.645 32.7092 162.178 32.7092C161.405 32.7092 160.785 32.5492 160.318 32.2292C159.851 31.9092 159.511 31.4626 159.298 30.8892C159.098 30.3159 158.998 29.6626 158.998 28.9292V24.3692H157.358V22.3692H158.998V19.7292H161.298V22.3692H164.458V24.3692H161.298V28.9292C161.298 29.5426 161.411 29.9692 161.638 30.2092C161.878 30.4359 162.218 30.5492 162.658 30.5492C162.871 30.5492 163.098 30.5292 163.338 30.4892C163.591 30.4359 163.871 30.3492 164.178 30.2292L164.758 32.1692ZM178.287 32.6092C177.607 32.6092 177.061 32.4692 176.647 32.1892C176.247 31.9092 175.954 31.5626 175.767 31.1492C175.194 31.6826 174.641 32.0759 174.107 32.3292C173.574 32.5826 173.001 32.7092 172.387 32.7092C171.494 32.7092 170.834 32.4226 170.407 31.8492C169.994 31.2759 169.787 30.5492 169.787 29.6692C169.787 29.0826 169.894 28.5692 170.107 28.1292C170.334 27.6759 170.701 27.3226 171.207 27.0692C171.714 26.8159 172.407 26.6892 173.287 26.6892C173.634 26.6892 173.994 26.7159 174.367 26.7692C174.741 26.8092 175.114 26.8626 175.487 26.9292V25.7492C175.487 25.1892 175.334 24.8092 175.027 24.6092C174.721 24.3959 174.307 24.2892 173.787 24.2892C173.387 24.2892 172.947 24.3426 172.467 24.4492C172.001 24.5559 171.494 24.7226 170.947 24.9492L170.287 22.9892C171.634 22.4426 172.854 22.1692 173.947 22.1692C174.934 22.1692 175.694 22.3359 176.227 22.6692C176.774 23.0026 177.154 23.4426 177.367 23.9892C177.581 24.5359 177.687 25.1226 177.687 25.7492V29.6492C177.687 29.8492 177.741 30.0426 177.847 30.2292C177.967 30.4026 178.194 30.4892 178.527 30.4892H178.747V32.6092H178.287ZM172.007 29.6292C172.007 29.9892 172.087 30.2759 172.247 30.4892C172.407 30.6892 172.641 30.7892 172.947 30.7892C173.254 30.7892 173.601 30.7092 173.987 30.5492C174.374 30.3892 174.874 30.0159 175.487 29.4292V28.5692C174.794 28.4492 174.114 28.3892 173.447 28.3892C172.927 28.3892 172.554 28.4959 172.327 28.7092C172.114 28.9226 172.007 29.2292 172.007 29.6292ZM186.504 26.8492V28.0292C186.504 28.8826 186.657 29.5226 186.964 29.9492C187.271 30.3759 187.764 30.5892 188.444 30.5892C188.777 30.5892 189.151 30.5492 189.564 30.4692C189.991 30.3759 190.451 30.2359 190.944 30.0492L191.604 31.9892C191.004 32.2292 190.437 32.4092 189.904 32.5292C189.371 32.6492 188.844 32.7092 188.324 32.7092C186.991 32.7092 185.971 32.2826 185.264 31.4292C184.557 30.5759 184.204 29.4426 184.204 28.0292V26.8492C184.204 25.4226 184.557 24.2892 185.264 23.4492C185.971 22.5959 186.991 22.1692 188.324 22.1692C188.831 22.1692 189.344 22.2292 189.864 22.3492C190.384 22.4692 190.931 22.6426 191.504 22.8692L190.844 24.8492C189.884 24.4759 189.084 24.2892 188.444 24.2892C187.764 24.2892 187.271 24.5026 186.964 24.9292C186.657 25.3426 186.504 25.9826 186.504 26.8492ZM203.809 32.1692C203.462 32.3292 203.062 32.4559 202.609 32.5492C202.156 32.6559 201.696 32.7092 201.229 32.7092C200.456 32.7092 199.836 32.5492 199.369 32.2292C198.902 31.9092 198.562 31.4626 198.349 30.8892C198.149 30.3159 198.049 29.6626 198.049 28.9292V24.3692H196.409V22.3692H198.049V19.7292H200.349V22.3692H203.509V24.3692H200.349V28.9292C200.349 29.5426 200.462 29.9692 200.689 30.2092C200.929 30.4359 201.269 30.5492 201.709 30.5492C201.922 30.5492 202.149 30.5292 202.389 30.4892C202.642 30.4359 202.922 30.3492 203.229 30.2292L203.809 32.1692Z" fill="white"/>
</svg>
