<svg width="187" height="47" viewBox="0 0 187 47" fill="none" xmlns="http://www.w3.org/2000/svg">
<path d="M23.2598 0.138184H186.88V46.4062H0.96701L23.2598 0.138184Z" fill="white"/>
<path d="M65.2091 23.3555C64.8358 23.3555 64.3958 23.4489 63.8891 23.6355C63.3958 23.8222 62.7958 24.2022 62.0891 24.7755V31.9155H60.4491V22.0155H62.0091V23.3955C62.7158 22.7955 63.3558 22.3822 63.9291 22.1555C64.5158 21.9289 65.0758 21.8155 65.6091 21.8155C66.5291 21.8155 67.2291 22.1089 67.7091 22.6955C68.2024 23.2689 68.4491 24.0889 68.4491 25.1555V31.9155H66.8091V25.3955C66.8091 24.0355 66.2758 23.3555 65.2091 23.3555ZM83.0549 31.3355C82.4549 31.6289 81.8549 31.8289 81.2549 31.9355C80.6549 32.0555 80.1015 32.1155 79.5949 32.1155C78.1682 32.1155 77.1015 31.7089 76.3949 30.8955C75.7015 30.0822 75.3549 28.9689 75.3549 27.5555V26.3555C75.3549 24.9822 75.7015 23.8822 76.3949 23.0555C77.1015 22.2289 78.0949 21.8155 79.3749 21.8155C80.0549 21.8155 80.6749 21.9555 81.2349 22.2355C81.8082 22.5022 82.2615 22.9155 82.5949 23.4755C82.9415 24.0222 83.1149 24.7289 83.1149 25.5955C83.1149 26.1555 83.0349 26.7955 82.8749 27.5155H76.9749V27.5555C76.9749 28.5689 77.1815 29.3355 77.5949 29.8555C78.0215 30.3755 78.7015 30.6355 79.6349 30.6355C80.0615 30.6355 80.5282 30.5822 81.0349 30.4755C81.5549 30.3689 82.0615 30.2022 82.5549 29.9755L83.0549 31.3355ZM79.3749 23.2555C78.6015 23.2555 78.0149 23.5089 77.6149 24.0155C77.2282 24.5089 77.0149 25.2089 76.9749 26.1155H81.4549C81.4949 25.8755 81.5149 25.6489 81.5149 25.4355C81.5149 24.6889 81.3015 24.1422 80.8749 23.7955C80.4615 23.4355 79.9615 23.2555 79.3749 23.2555ZM97.873 33.1555C97.873 34.1289 97.473 34.9089 96.673 35.4955C95.8863 36.0822 94.7997 36.3755 93.413 36.3755C92.7197 36.3755 91.993 36.2822 91.233 36.0955C90.4863 35.9089 89.7797 35.6089 89.113 35.1955L89.673 33.9155C90.3397 34.2889 90.9797 34.5489 91.593 34.6955C92.2197 34.8555 92.8263 34.9355 93.413 34.9355C94.3197 34.9355 95.0197 34.7889 95.513 34.4955C96.0063 34.2022 96.253 33.8089 96.253 33.3155C96.253 32.9555 96.133 32.6755 95.893 32.4755C95.653 32.2889 95.2663 32.1955 94.733 32.1955H92.433C91.5663 32.1955 90.9397 31.9889 90.553 31.5755C90.1663 31.1622 89.973 30.7089 89.973 30.2155C89.973 29.8689 90.053 29.5289 90.213 29.1955C90.373 28.8489 90.5997 28.5089 90.893 28.1755C90.4263 27.8955 90.053 27.5155 89.773 27.0355C89.493 26.5422 89.353 25.9489 89.353 25.2555C89.353 24.4955 89.513 23.8622 89.833 23.3555C90.1663 22.8489 90.6063 22.4689 91.153 22.2155C91.6997 21.9489 92.313 21.8155 92.993 21.8155H93.333C93.7997 21.8155 94.2263 21.8822 94.613 22.0155H98.173V23.4755L96.013 23.1755C96.293 23.4155 96.5197 23.7155 96.693 24.0755C96.8663 24.4222 96.953 24.8489 96.953 25.3555C96.953 26.0755 96.7863 26.6822 96.453 27.1755C96.133 27.6689 95.6997 28.0489 95.153 28.3155C94.6063 28.5689 93.9997 28.6955 93.333 28.6955H92.993C92.8197 28.6955 92.653 28.6889 92.493 28.6755C92.333 28.6489 92.173 28.6222 92.013 28.5955C91.6263 29.0222 91.433 29.4422 91.433 29.8555C91.433 30.3889 91.8063 30.6555 92.553 30.6555H94.793C95.753 30.6555 96.5063 30.8689 97.053 31.2955C97.5997 31.7222 97.873 32.3422 97.873 33.1555ZM93.333 27.2755C93.853 27.2755 94.313 27.1089 94.713 26.7755C95.113 26.4422 95.313 25.9355 95.313 25.2555C95.313 24.5889 95.113 24.0889 94.713 23.7555C94.313 23.4089 93.853 23.2355 93.333 23.2355H92.993C92.4597 23.2355 91.993 23.4089 91.593 23.7555C91.193 24.0889 90.993 24.5889 90.993 25.2555C90.993 25.9355 91.193 26.4422 91.593 26.7755C91.993 27.1089 92.4597 27.2755 92.993 27.2755H93.333ZM112.184 26.3555V27.5555C112.184 28.9689 111.817 30.0822 111.084 30.8955C110.364 31.7089 109.33 32.1155 107.984 32.1155C106.65 32.1155 105.617 31.7089 104.884 30.8955C104.15 30.0822 103.784 28.9689 103.784 27.5555V26.3555C103.784 24.9689 104.144 23.8689 104.864 23.0555C105.597 22.2289 106.637 21.8155 107.984 21.8155C109.33 21.8155 110.364 22.2289 111.084 23.0555C111.817 23.8689 112.184 24.9689 112.184 26.3555ZM110.484 26.3555C110.484 25.4089 110.27 24.6689 109.844 24.1355C109.417 23.5889 108.797 23.3155 107.984 23.3155C107.184 23.3155 106.564 23.5889 106.124 24.1355C105.697 24.6689 105.484 25.4089 105.484 26.3555V27.5555C105.484 28.5422 105.697 29.3022 106.124 29.8355C106.564 30.3689 107.184 30.6355 107.984 30.6355C108.797 30.6355 109.417 30.3689 109.844 29.8355C110.27 29.3022 110.484 28.5422 110.484 27.5555V26.3555ZM120.324 26.3755V27.5555C120.324 28.5689 120.511 29.3355 120.884 29.8555C121.257 30.3622 121.851 30.6155 122.664 30.6155C123.464 30.6155 124.324 30.4089 125.244 29.9955L125.744 31.3755C124.651 31.8689 123.591 32.1155 122.564 32.1155C121.284 32.1155 120.311 31.7089 119.644 30.8955C118.977 30.0822 118.644 28.9689 118.644 27.5555V26.3755C118.644 24.9622 118.977 23.8489 119.644 23.0355C120.311 22.2222 121.284 21.8155 122.564 21.8155C123.044 21.8155 123.537 21.8822 124.044 22.0155C124.564 22.1355 125.084 22.3089 125.604 22.5355L125.104 23.9355C124.664 23.7489 124.237 23.6022 123.824 23.4955C123.424 23.3889 123.037 23.3355 122.664 23.3355C121.851 23.3355 121.257 23.5955 120.884 24.1155C120.511 24.6222 120.324 25.3755 120.324 26.3755ZM133.888 19.5955H132.048V17.7555H133.888V19.5955ZM133.788 31.9155H132.148V22.0155H133.788V31.9155ZM148.564 32.0155C147.951 32.0155 147.457 31.8755 147.084 31.5955C146.724 31.3155 146.471 30.9689 146.324 30.5555C145.671 31.1289 145.077 31.5355 144.544 31.7755C144.011 32.0022 143.477 32.1155 142.944 32.1155C142.077 32.1155 141.437 31.8355 141.024 31.2755C140.611 30.7155 140.404 30.0289 140.404 29.2155C140.404 28.6689 140.504 28.1822 140.704 27.7555C140.904 27.3289 141.244 26.9955 141.724 26.7555C142.204 26.5022 142.851 26.3755 143.664 26.3755C144.024 26.3755 144.417 26.4022 144.844 26.4555C145.271 26.4955 145.704 26.5489 146.144 26.6155V25.2755C146.144 24.5289 145.977 24.0222 145.644 23.7555C145.324 23.4755 144.851 23.3355 144.224 23.3355C143.371 23.3355 142.417 23.5689 141.364 24.0355L140.844 22.6755C141.457 22.3955 142.044 22.1822 142.604 22.0355C143.164 21.8889 143.731 21.8155 144.304 21.8155C145.237 21.8155 145.951 21.9689 146.444 22.2755C146.937 22.5822 147.277 22.9889 147.464 23.4955C147.651 24.0022 147.744 24.5555 147.744 25.1555V29.4355C147.744 29.7422 147.804 30.0022 147.924 30.2155C148.044 30.4155 148.284 30.5155 148.644 30.5155H148.864V32.0155H148.564ZM142.024 29.1955C142.024 29.6489 142.131 30.0155 142.344 30.2955C142.557 30.5755 142.864 30.7155 143.264 30.7155C143.611 30.7155 144.011 30.6155 144.464 30.4155C144.917 30.2022 145.477 29.7822 146.144 29.1555V27.8955C145.237 27.7489 144.437 27.6755 143.744 27.6755C143.131 27.6755 142.691 27.8022 142.424 28.0555C142.157 28.3089 142.024 28.6889 142.024 29.1955ZM160.627 31.5555C159.881 31.9289 159.087 32.1155 158.247 32.1155C157.527 32.1155 156.961 31.9689 156.547 31.6755C156.147 31.3822 155.861 30.9889 155.687 30.4955C155.527 30.0022 155.447 29.4555 155.447 28.8555V23.4555H153.727V22.0155H155.447V19.2555H157.087V22.0155H160.327V23.4555H157.087V28.7955C157.087 29.4889 157.201 29.9689 157.427 30.2355C157.667 30.4889 158.034 30.6155 158.527 30.6155C158.767 30.6155 159.014 30.5889 159.267 30.5355C159.534 30.4689 159.821 30.3622 160.127 30.2155L160.627 31.5555ZM173.965 31.3355C173.365 31.6289 172.765 31.8289 172.165 31.9355C171.565 32.0555 171.012 32.1155 170.505 32.1155C169.078 32.1155 168.012 31.7089 167.305 30.8955C166.612 30.0822 166.265 28.9689 166.265 27.5555V26.3555C166.265 24.9822 166.612 23.8822 167.305 23.0555C168.012 22.2289 169.005 21.8155 170.285 21.8155C170.965 21.8155 171.585 21.9555 172.145 22.2355C172.718 22.5022 173.172 22.9155 173.505 23.4755C173.852 24.0222 174.025 24.7289 174.025 25.5955C174.025 26.1555 173.945 26.7955 173.785 27.5155H167.885V27.5555C167.885 28.5689 168.092 29.3355 168.505 29.8555C168.932 30.3755 169.612 30.6355 170.545 30.6355C170.972 30.6355 171.438 30.5822 171.945 30.4755C172.465 30.3689 172.972 30.2022 173.465 29.9755L173.965 31.3355ZM170.285 23.2555C169.512 23.2555 168.925 23.5089 168.525 24.0155C168.138 24.5089 167.925 25.2089 167.885 26.1155H172.365C172.405 25.8755 172.425 25.6489 172.425 25.4355C172.425 24.6889 172.212 24.1422 171.785 23.7955C171.372 23.4355 170.872 23.2555 170.285 23.2555Z" fill="black"/>
</svg>
