<svg width="218" height="47" viewBox="0 0 218 47" fill="none" xmlns="http://www.w3.org/2000/svg">
<path d="M0.856537 46.5L26.4178 1.23193H217.381V46.5H0.856537Z" fill="black" stroke="white"/>
<path d="M114.032 27.1292C114.032 28.1026 114.246 28.9026 114.672 29.5292C115.099 30.1426 115.799 30.4492 116.772 30.4492C117.172 30.4492 117.586 30.3959 118.012 30.2892C118.452 30.1826 118.992 30.0026 119.632 29.7492L120.372 31.8292C119.652 32.1492 118.986 32.3759 118.372 32.5092C117.772 32.6426 117.192 32.7092 116.632 32.7092C115.512 32.7092 114.572 32.4692 113.812 31.9892C113.066 31.5092 112.506 30.8492 112.132 30.0092C111.759 29.1692 111.572 28.2092 111.572 27.1292V24.2692C111.572 23.1892 111.759 22.2292 112.132 21.3892C112.506 20.5492 113.066 19.8959 113.812 19.4292C114.572 18.9492 115.512 18.7092 116.632 18.7092C117.179 18.7092 117.746 18.7759 118.332 18.9092C118.919 19.0292 119.559 19.2426 120.252 19.5492L119.512 21.6692C118.899 21.4159 118.386 21.2359 117.972 21.1292C117.559 21.0226 117.159 20.9692 116.772 20.9692C115.799 20.9692 115.099 21.2759 114.672 21.8892C114.246 22.5026 114.032 23.2959 114.032 24.2692V27.1292ZM134.485 26.8292V28.0292C134.485 29.4426 134.099 30.5759 133.325 31.4292C132.552 32.2826 131.459 32.7092 130.045 32.7092C128.632 32.7092 127.539 32.2826 126.765 31.4292C125.992 30.5759 125.605 29.4426 125.605 28.0292V26.8292C125.605 25.4159 125.985 24.2892 126.745 23.4492C127.519 22.5959 128.619 22.1692 130.045 22.1692C131.472 22.1692 132.565 22.5959 133.325 23.4492C134.099 24.2892 134.485 25.4159 134.485 26.8292ZM132.125 26.8292C132.125 26.0159 131.945 25.3826 131.585 24.9292C131.225 24.4626 130.712 24.2292 130.045 24.2292C129.379 24.2292 128.865 24.4626 128.505 24.9292C128.145 25.3826 127.965 26.0159 127.965 26.8292V28.0292C127.965 28.8426 128.145 29.4826 128.505 29.9492C128.865 30.4159 129.379 30.6492 130.045 30.6492C130.712 30.6492 131.225 30.4159 131.585 29.9492C131.945 29.4826 132.125 28.8426 132.125 28.0292V26.8292ZM146.024 24.3092C145.691 24.3092 145.311 24.3892 144.884 24.5492C144.458 24.7092 143.951 25.0226 143.364 25.4892V32.5092H141.064V22.3692H143.244V23.7292C143.871 23.1826 144.464 22.7892 145.024 22.5492C145.584 22.2959 146.151 22.1692 146.724 22.1692C147.698 22.1692 148.438 22.4826 148.944 23.1092C149.451 23.7226 149.704 24.5892 149.704 25.7092V32.5092H147.404V25.9892C147.404 24.8692 146.944 24.3092 146.024 24.3092ZM162.844 32.1692C162.497 32.3292 162.097 32.4559 161.644 32.5492C161.191 32.6559 160.731 32.7092 160.264 32.7092C159.491 32.7092 158.871 32.5492 158.404 32.2292C157.937 31.9092 157.597 31.4626 157.384 30.8892C157.184 30.3159 157.084 29.6626 157.084 28.9292V24.3692H155.444V22.3692H157.084V19.7292H159.384V22.3692H162.544V24.3692H159.384V28.9292C159.384 29.5426 159.497 29.9692 159.724 30.2092C159.964 30.4359 160.304 30.5492 160.744 30.5492C160.957 30.5492 161.184 30.5292 161.424 30.4892C161.677 30.4359 161.957 30.3492 162.264 30.2292L162.844 32.1692ZM176.373 32.6092C175.693 32.6092 175.147 32.4692 174.733 32.1892C174.333 31.9092 174.04 31.5626 173.853 31.1492C173.28 31.6826 172.727 32.0759 172.193 32.3292C171.66 32.5826 171.087 32.7092 170.473 32.7092C169.58 32.7092 168.92 32.4226 168.493 31.8492C168.08 31.2759 167.873 30.5492 167.873 29.6692C167.873 29.0826 167.98 28.5692 168.193 28.1292C168.42 27.6759 168.787 27.3226 169.293 27.0692C169.8 26.8159 170.493 26.6892 171.373 26.6892C171.72 26.6892 172.08 26.7159 172.453 26.7692C172.827 26.8092 173.2 26.8626 173.573 26.9292V25.7492C173.573 25.1892 173.42 24.8092 173.113 24.6092C172.807 24.3959 172.393 24.2892 171.873 24.2892C171.473 24.2892 171.033 24.3426 170.553 24.4492C170.087 24.5559 169.58 24.7226 169.033 24.9492L168.373 22.9892C169.72 22.4426 170.94 22.1692 172.033 22.1692C173.02 22.1692 173.78 22.3359 174.313 22.6692C174.86 23.0026 175.24 23.4426 175.453 23.9892C175.667 24.5359 175.773 25.1226 175.773 25.7492V29.6492C175.773 29.8492 175.827 30.0426 175.933 30.2292C176.053 30.4026 176.28 30.4892 176.613 30.4892H176.833V32.6092H176.373ZM170.093 29.6292C170.093 29.9892 170.173 30.2759 170.333 30.4892C170.493 30.6892 170.727 30.7892 171.033 30.7892C171.34 30.7892 171.687 30.7092 172.073 30.5492C172.46 30.3892 172.96 30.0159 173.573 29.4292V28.5692C172.88 28.4492 172.2 28.3892 171.533 28.3892C171.013 28.3892 170.64 28.4959 170.413 28.7092C170.2 28.9226 170.093 29.2292 170.093 29.6292ZM188.93 32.1692C188.583 32.3292 188.183 32.4559 187.73 32.5492C187.277 32.6559 186.817 32.7092 186.35 32.7092C185.577 32.7092 184.957 32.5492 184.49 32.2292C184.023 31.9092 183.683 31.4626 183.47 30.8892C183.27 30.3159 183.17 29.6626 183.17 28.9292V24.3692H181.53V22.3692H183.17V19.7292H185.47V22.3692H188.63V24.3692H185.47V28.9292C185.47 29.5426 185.583 29.9692 185.81 30.2092C186.05 30.4359 186.39 30.5492 186.83 30.5492C187.043 30.5492 187.27 30.5292 187.51 30.4892C187.763 30.4359 188.043 30.3492 188.35 30.2292L188.93 32.1692ZM203.079 26.8292V28.0292C203.079 29.4426 202.693 30.5759 201.919 31.4292C201.146 32.2826 200.053 32.7092 198.639 32.7092C197.226 32.7092 196.133 32.2826 195.359 31.4292C194.586 30.5759 194.199 29.4426 194.199 28.0292V26.8292C194.199 25.4159 194.579 24.2892 195.339 23.4492C196.113 22.5959 197.213 22.1692 198.639 22.1692C200.066 22.1692 201.159 22.5959 201.919 23.4492C202.693 24.2892 203.079 25.4159 203.079 26.8292ZM200.719 26.8292C200.719 26.0159 200.539 25.3826 200.179 24.9292C199.819 24.4626 199.306 24.2292 198.639 24.2292C197.973 24.2292 197.459 24.4626 197.099 24.9292C196.739 25.3826 196.559 26.0159 196.559 26.8292V28.0292C196.559 28.8426 196.739 29.4826 197.099 29.9492C197.459 30.4159 197.973 30.6492 198.639 30.6492C199.306 30.6492 199.819 30.4159 200.179 29.9492C200.539 29.4826 200.719 28.8426 200.719 28.0292V26.8292Z" fill="white"/>
</svg>
