<svg width="132" height="47" viewBox="0 0 132 47" fill="none" xmlns="http://www.w3.org/2000/svg">
<path d="M19.6784 0H131.563V46.2681H0.329926L19.6784 0Z" fill="white"/>
<path d="M56.1862 24.0586C55.8129 24.0586 55.3729 24.1519 54.8662 24.3386C54.3729 24.5253 53.7729 24.9053 53.0662 25.4786V32.6186H51.4262V17.8186H53.0662V24.0386C53.7596 23.4519 54.3862 23.0519 54.9462 22.8386C55.5062 22.6253 56.0529 22.5186 56.5862 22.5186C57.5062 22.5186 58.2062 22.8119 58.6862 23.3986C59.1796 23.9719 59.4262 24.7919 59.4262 25.8586V32.6186H57.7862V26.0986C57.7862 24.7386 57.2529 24.0586 56.1862 24.0586ZM74.692 27.0586V28.2586C74.692 29.6719 74.3254 30.7853 73.592 31.5986C72.872 32.4119 71.8387 32.8186 70.492 32.8186C69.1587 32.8186 68.1254 32.4119 67.392 31.5986C66.6587 30.7853 66.292 29.6719 66.292 28.2586V27.0586C66.292 25.6719 66.652 24.5719 67.372 23.7586C68.1054 22.9319 69.1454 22.5186 70.492 22.5186C71.8387 22.5186 72.872 22.9319 73.592 23.7586C74.3254 24.5719 74.692 25.6719 74.692 27.0586ZM72.992 27.0586C72.992 26.1119 72.7787 25.3719 72.352 24.8386C71.9254 24.2919 71.3054 24.0186 70.492 24.0186C69.692 24.0186 69.072 24.2919 68.632 24.8386C68.2054 25.3719 67.992 26.1119 67.992 27.0586V28.2586C67.992 29.2453 68.2054 30.0053 68.632 30.5386C69.072 31.0719 69.692 31.3386 70.492 31.3386C71.3054 31.3386 71.9254 31.0719 72.352 30.5386C72.7787 30.0053 72.992 29.2453 72.992 28.2586V27.0586ZM86.3323 24.0586C85.959 24.0586 85.539 24.1586 85.0723 24.3586C84.6057 24.5453 84.019 24.9186 83.3123 25.4786V32.6186H81.6723V22.7186H83.2323V24.0986C83.939 23.5119 84.5657 23.1053 85.1123 22.8786C85.659 22.6386 86.199 22.5186 86.7323 22.5186C87.359 22.5186 87.879 22.6653 88.2923 22.9586C88.7057 23.2386 89.0123 23.6453 89.2123 24.1786C89.9457 23.5519 90.599 23.1186 91.1723 22.8786C91.759 22.6386 92.3323 22.5186 92.8923 22.5186C93.7723 22.5186 94.4457 22.8119 94.9123 23.3986C95.379 23.9719 95.6123 24.7919 95.6123 25.8586V32.6186H93.9723V26.0986C93.9723 24.7386 93.479 24.0586 92.4923 24.0586C92.119 24.0586 91.6923 24.1586 91.2123 24.3586C90.7457 24.5453 90.159 24.9186 89.4523 25.4786C89.4657 25.5319 89.4723 25.5919 89.4723 25.6586C89.4723 25.7253 89.4723 25.7919 89.4723 25.8586V32.6186H87.8323V26.0986C87.8323 24.7386 87.3323 24.0586 86.3323 24.0586ZM110.235 32.0386C109.635 32.3319 109.035 32.5319 108.435 32.6386C107.835 32.7586 107.282 32.8186 106.775 32.8186C105.348 32.8186 104.282 32.4119 103.575 31.5986C102.882 30.7853 102.535 29.6719 102.535 28.2586V27.0586C102.535 25.6853 102.882 24.5853 103.575 23.7586C104.282 22.9319 105.275 22.5186 106.555 22.5186C107.235 22.5186 107.855 22.6586 108.415 22.9386C108.988 23.2053 109.442 23.6186 109.775 24.1786C110.122 24.7253 110.295 25.4319 110.295 26.2986C110.295 26.8586 110.215 27.4986 110.055 28.2186H104.155V28.2586C104.155 29.2719 104.362 30.0386 104.775 30.5586C105.202 31.0786 105.882 31.3386 106.815 31.3386C107.242 31.3386 107.708 31.2853 108.215 31.1786C108.735 31.0719 109.242 30.9053 109.735 30.6786L110.235 32.0386ZM106.555 23.9586C105.782 23.9586 105.195 24.2119 104.795 24.7186C104.408 25.2119 104.195 25.9119 104.155 26.8186H108.635C108.675 26.5786 108.695 26.3519 108.695 26.1386C108.695 25.3919 108.482 24.8453 108.055 24.4986C107.642 24.1386 107.142 23.9586 106.555 23.9586Z" fill="black"/>
</svg>
