<svg width="187" height="47" viewBox="0 0 187 47" fill="none" xmlns="http://www.w3.org/2000/svg">
<path d="M23.2598 0.138184H186.88V46.4062H0.96701L23.2598 0.138184Z" fill="white"/>
<path d="M49.2169 23.3555C48.8436 23.3555 48.4036 23.4489 47.8969 23.6355C47.4036 23.8222 46.8036 24.2022 46.0969 24.7755V31.9155H44.4569V22.0155H46.0169V23.3955C46.7236 22.7955 47.3636 22.3822 47.9369 22.1555C48.5236 21.9289 49.0836 21.8155 49.6169 21.8155C50.5369 21.8155 51.2369 22.1089 51.7169 22.6955C52.2102 23.2689 52.4569 24.0889 52.4569 25.1555V31.9155H50.8169V25.3955C50.8169 24.0355 50.2836 23.3555 49.2169 23.3555ZM67.0627 31.3355C66.4627 31.6289 65.8627 31.8289 65.2627 31.9355C64.6627 32.0555 64.1093 32.1155 63.6027 32.1155C62.176 32.1155 61.1093 31.7089 60.4027 30.8955C59.7093 30.0822 59.3627 28.9689 59.3627 27.5555V26.3555C59.3627 24.9822 59.7093 23.8822 60.4027 23.0555C61.1093 22.2289 62.1027 21.8155 63.3827 21.8155C64.0627 21.8155 64.6827 21.9555 65.2427 22.2355C65.816 22.5022 66.2693 22.9155 66.6027 23.4755C66.9493 24.0222 67.1227 24.7289 67.1227 25.5955C67.1227 26.1555 67.0427 26.7955 66.8827 27.5155H60.9827V27.5555C60.9827 28.5689 61.1893 29.3355 61.6027 29.8555C62.0293 30.3755 62.7093 30.6355 63.6427 30.6355C64.0693 30.6355 64.536 30.5822 65.0427 30.4755C65.5627 30.3689 66.0693 30.2022 66.5627 29.9755L67.0627 31.3355ZM63.3827 23.2555C62.6093 23.2555 62.0227 23.5089 61.6227 24.0155C61.236 24.5089 61.0227 25.2089 60.9827 26.1155H65.4627C65.5027 25.8755 65.5227 25.6489 65.5227 25.4355C65.5227 24.6889 65.3093 24.1422 64.8827 23.7955C64.4693 23.4355 63.9693 23.2555 63.3827 23.2555ZM81.8808 33.1555C81.8808 34.1289 81.4808 34.9089 80.6808 35.4955C79.8941 36.0822 78.8075 36.3755 77.4208 36.3755C76.7275 36.3755 76.0008 36.2822 75.2408 36.0955C74.4941 35.9089 73.7875 35.6089 73.1208 35.1955L73.6808 33.9155C74.3475 34.2889 74.9875 34.5489 75.6008 34.6955C76.2275 34.8555 76.8341 34.9355 77.4208 34.9355C78.3275 34.9355 79.0275 34.7889 79.5208 34.4955C80.0141 34.2022 80.2608 33.8089 80.2608 33.3155C80.2608 32.9555 80.1408 32.6755 79.9008 32.4755C79.6608 32.2889 79.2741 32.1955 78.7408 32.1955H76.4408C75.5741 32.1955 74.9475 31.9889 74.5608 31.5755C74.1741 31.1622 73.9808 30.7089 73.9808 30.2155C73.9808 29.8689 74.0608 29.5289 74.2208 29.1955C74.3808 28.8489 74.6075 28.5089 74.9008 28.1755C74.4341 27.8955 74.0608 27.5155 73.7808 27.0355C73.5008 26.5422 73.3608 25.9489 73.3608 25.2555C73.3608 24.4955 73.5208 23.8622 73.8408 23.3555C74.1741 22.8489 74.6141 22.4689 75.1608 22.2155C75.7075 21.9489 76.3208 21.8155 77.0008 21.8155H77.3408C77.8075 21.8155 78.2341 21.8822 78.6208 22.0155H82.1808V23.4755L80.0208 23.1755C80.3008 23.4155 80.5275 23.7155 80.7008 24.0755C80.8741 24.4222 80.9608 24.8489 80.9608 25.3555C80.9608 26.0755 80.7941 26.6822 80.4608 27.1755C80.1408 27.6689 79.7075 28.0489 79.1608 28.3155C78.6141 28.5689 78.0075 28.6955 77.3408 28.6955H77.0008C76.8275 28.6955 76.6608 28.6889 76.5008 28.6755C76.3408 28.6489 76.1808 28.6222 76.0208 28.5955C75.6341 29.0222 75.4408 29.4422 75.4408 29.8555C75.4408 30.3889 75.8141 30.6555 76.5608 30.6555H78.8008C79.7608 30.6555 80.5141 30.8689 81.0608 31.2955C81.6075 31.7222 81.8808 32.3422 81.8808 33.1555ZM77.3408 27.2755C77.8608 27.2755 78.3208 27.1089 78.7208 26.7755C79.1208 26.4422 79.3208 25.9355 79.3208 25.2555C79.3208 24.5889 79.1208 24.0889 78.7208 23.7555C78.3208 23.4089 77.8608 23.2355 77.3408 23.2355H77.0008C76.4675 23.2355 76.0008 23.4089 75.6008 23.7555C75.2008 24.0889 75.0008 24.5889 75.0008 25.2555C75.0008 25.9355 75.2008 26.4422 75.6008 26.7755C76.0008 27.1089 76.4675 27.2755 77.0008 27.2755H77.3408ZM96.1914 26.3555V27.5555C96.1914 28.9689 95.8248 30.0822 95.0914 30.8955C94.3714 31.7089 93.3381 32.1155 91.9914 32.1155C90.6581 32.1155 89.6248 31.7089 88.8914 30.8955C88.1581 30.0822 87.7914 28.9689 87.7914 27.5555V26.3555C87.7914 24.9689 88.1514 23.8689 88.8714 23.0555C89.6048 22.2289 90.6448 21.8155 91.9914 21.8155C93.3381 21.8155 94.3714 22.2289 95.0914 23.0555C95.8248 23.8689 96.1914 24.9689 96.1914 26.3555ZM94.4914 26.3555C94.4914 25.4089 94.2781 24.6689 93.8514 24.1355C93.4248 23.5889 92.8048 23.3155 91.9914 23.3155C91.1914 23.3155 90.5714 23.5889 90.1314 24.1355C89.7048 24.6689 89.4914 25.4089 89.4914 26.3555V27.5555C89.4914 28.5422 89.7048 29.3022 90.1314 29.8355C90.5714 30.3689 91.1914 30.6355 91.9914 30.6355C92.8048 30.6355 93.4248 30.3689 93.8514 29.8355C94.2781 29.3022 94.4914 28.5422 94.4914 27.5555V26.3555ZM104.332 26.3755V27.5555C104.332 28.5689 104.518 29.3355 104.892 29.8555C105.265 30.3622 105.858 30.6155 106.672 30.6155C107.472 30.6155 108.332 30.4089 109.252 29.9955L109.752 31.3755C108.658 31.8689 107.598 32.1155 106.572 32.1155C105.292 32.1155 104.318 31.7089 103.652 30.8955C102.985 30.0822 102.652 28.9689 102.652 27.5555V26.3755C102.652 24.9622 102.985 23.8489 103.652 23.0355C104.318 22.2222 105.292 21.8155 106.572 21.8155C107.052 21.8155 107.545 21.8822 108.052 22.0155C108.572 22.1355 109.092 22.3089 109.612 22.5355L109.112 23.9355C108.672 23.7489 108.245 23.6022 107.832 23.4955C107.432 23.3889 107.045 23.3355 106.672 23.3355C105.858 23.3355 105.265 23.5955 104.892 24.1155C104.518 24.6222 104.332 25.3755 104.332 26.3755ZM117.896 19.5955H116.056V17.7555H117.896V19.5955ZM117.796 31.9155H116.156V22.0155H117.796V31.9155ZM132.572 32.0155C131.959 32.0155 131.465 31.8755 131.092 31.5955C130.732 31.3155 130.479 30.9689 130.332 30.5555C129.679 31.1289 129.085 31.5355 128.552 31.7755C128.019 32.0022 127.485 32.1155 126.952 32.1155C126.085 32.1155 125.445 31.8355 125.032 31.2755C124.619 30.7155 124.412 30.0289 124.412 29.2155C124.412 28.6689 124.512 28.1822 124.712 27.7555C124.912 27.3289 125.252 26.9955 125.732 26.7555C126.212 26.5022 126.859 26.3755 127.672 26.3755C128.032 26.3755 128.425 26.4022 128.852 26.4555C129.279 26.4955 129.712 26.5489 130.152 26.6155V25.2755C130.152 24.5289 129.985 24.0222 129.652 23.7555C129.332 23.4755 128.859 23.3355 128.232 23.3355C127.379 23.3355 126.425 23.5689 125.372 24.0355L124.852 22.6755C125.465 22.3955 126.052 22.1822 126.612 22.0355C127.172 21.8889 127.739 21.8155 128.312 21.8155C129.245 21.8155 129.959 21.9689 130.452 22.2755C130.945 22.5822 131.285 22.9889 131.472 23.4955C131.659 24.0022 131.752 24.5555 131.752 25.1555V29.4355C131.752 29.7422 131.812 30.0022 131.932 30.2155C132.052 30.4155 132.292 30.5155 132.652 30.5155H132.872V32.0155H132.572ZM126.032 29.1955C126.032 29.6489 126.139 30.0155 126.352 30.2955C126.565 30.5755 126.872 30.7155 127.272 30.7155C127.619 30.7155 128.019 30.6155 128.472 30.4155C128.925 30.2022 129.485 29.7822 130.152 29.1555V27.8955C129.245 27.7489 128.445 27.6755 127.752 27.6755C127.139 27.6755 126.699 27.8022 126.432 28.0555C126.165 28.3089 126.032 28.6889 126.032 29.1955ZM144.615 34.5555C144.615 35.1289 144.409 35.5755 143.995 35.8955C143.582 36.2155 143.035 36.3755 142.355 36.3755C142.075 36.3755 141.802 36.3489 141.535 36.2955C141.282 36.2422 141.029 36.1689 140.775 36.0755L140.995 34.9555C141.222 35.0355 141.455 35.0955 141.695 35.1355C141.935 35.1755 142.149 35.1955 142.335 35.1955C142.695 35.1955 142.942 35.1355 143.075 35.0155C143.209 34.8955 143.275 34.7489 143.275 34.5755C143.275 34.4155 143.209 34.2755 143.075 34.1555C142.942 34.0355 142.689 33.9755 142.315 33.9755C142.235 33.9755 142.155 33.9755 142.075 33.9755C142.009 33.9889 141.935 34.0022 141.855 34.0155L141.375 33.2555L141.595 32.0155C140.635 31.8155 139.909 31.3289 139.415 30.5555C138.922 29.7689 138.675 28.7689 138.675 27.5555V26.3755C138.675 24.9622 139.009 23.8489 139.675 23.0355C140.342 22.2222 141.315 21.8155 142.595 21.8155C143.075 21.8155 143.569 21.8822 144.075 22.0155C144.595 22.1355 145.115 22.3089 145.635 22.5355L145.135 23.9355C144.695 23.7489 144.269 23.6022 143.855 23.4955C143.455 23.3889 143.069 23.3355 142.695 23.3355C141.882 23.3355 141.289 23.5955 140.915 24.1155C140.542 24.6222 140.355 25.3755 140.355 26.3755V27.5555C140.355 28.5689 140.542 29.3355 140.915 29.8555C141.289 30.3622 141.882 30.6155 142.695 30.6155C143.495 30.6155 144.355 30.4089 145.275 29.9955L145.775 31.3755C145.282 31.6022 144.782 31.7755 144.275 31.8955C143.769 32.0155 143.269 32.0889 142.775 32.1155L142.635 32.9155C143.275 32.9155 143.762 33.0622 144.095 33.3555C144.442 33.6489 144.615 34.0489 144.615 34.5555ZM159.42 32.0155C158.806 32.0155 158.313 31.8755 157.94 31.5955C157.58 31.3155 157.326 30.9689 157.18 30.5555C156.526 31.1289 155.933 31.5355 155.4 31.7755C154.866 32.0022 154.333 32.1155 153.8 32.1155C152.933 32.1155 152.293 31.8355 151.88 31.2755C151.466 30.7155 151.26 30.0289 151.26 29.2155C151.26 28.6689 151.36 28.1822 151.56 27.7555C151.76 27.3289 152.1 26.9955 152.58 26.7555C153.06 26.5022 153.706 26.3755 154.52 26.3755C154.88 26.3755 155.273 26.4022 155.7 26.4555C156.126 26.4955 156.56 26.5489 157 26.6155V25.2755C157 24.5289 156.833 24.0222 156.5 23.7555C156.18 23.4755 155.706 23.3355 155.08 23.3355C154.226 23.3355 153.273 23.5689 152.22 24.0355L151.7 22.6755C152.313 22.3955 152.9 22.1822 153.46 22.0355C154.02 21.8889 154.586 21.8155 155.16 21.8155C156.093 21.8155 156.806 21.9689 157.3 22.2755C157.793 22.5822 158.133 22.9889 158.32 23.4955C158.506 24.0022 158.6 24.5555 158.6 25.1555V29.4355C158.6 29.7422 158.66 30.0022 158.78 30.2155C158.9 30.4155 159.14 30.5155 159.5 30.5155H159.72V32.0155H159.42ZM152.88 29.1955C152.88 29.6489 152.986 30.0155 153.2 30.2955C153.413 30.5755 153.72 30.7155 154.12 30.7155C154.466 30.7155 154.866 30.6155 155.32 30.4155C155.773 30.2022 156.333 29.7822 157 29.1555V27.8955C156.093 27.7489 155.293 27.6755 154.6 27.6755C153.986 27.6755 153.546 27.8022 153.28 28.0555C153.013 28.3089 152.88 28.6889 152.88 29.1955ZM156.24 20.1555C155.906 20.1555 155.62 20.0755 155.38 19.9155C155.153 19.7422 154.96 19.5489 154.8 19.3355C154.64 19.1222 154.486 18.9355 154.34 18.7755C154.193 18.6022 154.033 18.5155 153.86 18.5155C153.726 18.5155 153.613 18.6089 153.52 18.7955C153.426 18.9822 153.38 19.3555 153.38 19.9155H152.12C152.133 18.9022 152.293 18.1889 152.6 17.7755C152.92 17.3622 153.326 17.1555 153.82 17.1555C154.166 17.1555 154.453 17.2422 154.68 17.4155C154.906 17.5755 155.1 17.7689 155.26 17.9955C155.42 18.2089 155.573 18.4022 155.72 18.5755C155.866 18.7355 156.026 18.8155 156.2 18.8155C156.346 18.8155 156.46 18.7222 156.54 18.5355C156.633 18.3489 156.686 17.9755 156.7 17.4155H157.96C157.946 18.4289 157.78 19.1422 157.46 19.5555C157.14 19.9555 156.733 20.1555 156.24 20.1555ZM173.883 26.3555V27.5555C173.883 28.9689 173.516 30.0822 172.783 30.8955C172.063 31.7089 171.03 32.1155 169.683 32.1155C168.35 32.1155 167.316 31.7089 166.583 30.8955C165.85 30.0822 165.483 28.9689 165.483 27.5555V26.3555C165.483 24.9689 165.843 23.8689 166.563 23.0555C167.296 22.2289 168.336 21.8155 169.683 21.8155C171.03 21.8155 172.063 22.2289 172.783 23.0555C173.516 23.8689 173.883 24.9689 173.883 26.3555ZM172.183 26.3555C172.183 25.4089 171.97 24.6689 171.543 24.1355C171.116 23.5889 170.496 23.3155 169.683 23.3155C168.883 23.3155 168.263 23.5889 167.823 24.1355C167.396 24.6689 167.183 25.4089 167.183 26.3555V27.5555C167.183 28.5422 167.396 29.3022 167.823 29.8355C168.263 30.3689 168.883 30.6355 169.683 30.6355C170.496 30.6355 171.116 30.3689 171.543 29.8355C171.97 29.3022 172.183 28.5422 172.183 27.5555V26.3555Z" fill="black"/>
</svg>
