<svg width="160" height="47" viewBox="0 0 160 47" fill="none" xmlns="http://www.w3.org/2000/svg">
<path d="M21.7588 0.569092H159.722V46.8372H0.727875L21.7588 0.569092Z" fill="white"/>
<path d="M48.4976 23.7864C48.1243 23.7864 47.7043 23.8864 47.2376 24.0864C46.7709 24.2731 46.1843 24.6464 45.4776 25.2064V32.3464H43.8376V22.4464H45.3976V23.8264C46.1043 23.2398 46.7309 22.8331 47.2776 22.6064C47.8243 22.3664 48.3643 22.2464 48.8976 22.2464C49.5243 22.2464 50.0443 22.3931 50.4576 22.6864C50.8709 22.9664 51.1776 23.3731 51.3776 23.9064C52.1109 23.2798 52.7643 22.8464 53.3376 22.6064C53.9243 22.3664 54.4976 22.2464 55.0576 22.2464C55.9376 22.2464 56.6109 22.5398 57.0776 23.1264C57.5443 23.6998 57.7776 24.5198 57.7776 25.5864V32.3464H56.1376V25.8264C56.1376 24.4664 55.6443 23.7864 54.6576 23.7864C54.2843 23.7864 53.8576 23.8864 53.3776 24.0864C52.9109 24.2731 52.3243 24.6464 51.6176 25.2064C51.6309 25.2598 51.6376 25.3198 51.6376 25.3864C51.6376 25.4531 51.6376 25.5198 51.6376 25.5864V32.3464H49.9976V25.8264C49.9976 24.4664 49.4976 23.7864 48.4976 23.7864ZM73.0604 26.7864V27.9864C73.0604 29.3998 72.6937 30.5131 71.9604 31.3264C71.2404 32.1398 70.2071 32.5464 68.8604 32.5464C67.5271 32.5464 66.4937 32.1398 65.7604 31.3264C65.0271 30.5131 64.6604 29.3998 64.6604 27.9864V26.7864C64.6604 25.3998 65.0204 24.2998 65.7404 23.4864C66.4737 22.6598 67.5137 22.2464 68.8604 22.2464C70.2071 22.2464 71.2404 22.6598 71.9604 23.4864C72.6937 24.2998 73.0604 25.3998 73.0604 26.7864ZM71.3604 26.7864C71.3604 25.8398 71.1471 25.0998 70.7204 24.5664C70.2937 24.0198 69.6737 23.7464 68.8604 23.7464C68.0604 23.7464 67.4404 24.0198 67.0004 24.5664C66.5737 25.0998 66.3604 25.8398 66.3604 26.7864V27.9864C66.3604 28.9731 66.5737 29.7331 67.0004 30.2664C67.4404 30.7998 68.0604 31.0664 68.8604 31.0664C69.6737 31.0664 70.2937 30.7998 70.7204 30.2664C71.1471 29.7331 71.3604 28.9731 71.3604 27.9864V26.7864ZM86.0607 32.3464V30.9664C85.4474 31.5531 84.8874 31.9664 84.3807 32.2064C83.8874 32.4331 83.3741 32.5464 82.8407 32.5464C81.7874 32.5464 80.9741 32.1464 80.4007 31.3464C79.8407 30.5464 79.5607 29.4264 79.5607 27.9864V26.8264C79.5607 25.4264 79.9074 24.3131 80.6007 23.4864C81.3074 22.6598 82.3274 22.2464 83.6607 22.2464C84.0474 22.2464 84.4341 22.2864 84.8207 22.3664C85.2074 22.4464 85.5941 22.5598 85.9807 22.7064V17.5464H87.6207V32.3464H86.0607ZM81.2607 27.9864C81.2607 29.0264 81.4207 29.7931 81.7407 30.2864C82.0741 30.7664 82.5674 31.0064 83.2207 31.0064C83.6074 31.0064 84.0074 30.9131 84.4207 30.7264C84.8341 30.5264 85.3541 30.1198 85.9807 29.5064V24.2264C85.5941 24.0531 85.2207 23.9331 84.8607 23.8664C84.5007 23.7864 84.1474 23.7464 83.8007 23.7464C82.8941 23.7464 82.2407 24.0198 81.8407 24.5664C81.4541 25.1131 81.2607 25.8664 81.2607 26.8264V27.9864ZM102.334 31.7664C101.734 32.0598 101.134 32.2598 100.534 32.3664C99.934 32.4864 99.3807 32.5464 98.874 32.5464C97.4473 32.5464 96.3807 32.1398 95.674 31.3264C94.9807 30.5131 94.634 29.3998 94.634 27.9864V26.7864C94.634 25.4131 94.9807 24.3131 95.674 23.4864C96.3807 22.6598 97.374 22.2464 98.654 22.2464C99.334 22.2464 99.954 22.3864 100.514 22.6664C101.087 22.9331 101.541 23.3464 101.874 23.9064C102.221 24.4531 102.394 25.1598 102.394 26.0264C102.394 26.5864 102.314 27.2264 102.154 27.9464H96.254V27.9864C96.254 28.9998 96.4607 29.7664 96.874 30.2864C97.3007 30.8064 97.9807 31.0664 98.914 31.0664C99.3407 31.0664 99.8073 31.0131 100.314 30.9064C100.834 30.7998 101.341 30.6331 101.834 30.4064L102.334 31.7664ZM98.654 23.6864C97.8807 23.6864 97.294 23.9398 96.894 24.4464C96.5073 24.9398 96.294 25.6398 96.254 26.5464H100.734C100.774 26.3064 100.794 26.0798 100.794 25.8664C100.794 25.1198 100.581 24.5731 100.154 24.2264C99.7407 23.8664 99.2407 23.6864 98.654 23.6864ZM109.212 29.9464V17.5464H110.852V29.8664C110.852 30.2264 110.905 30.4998 111.012 30.6864C111.132 30.8598 111.365 30.9464 111.712 30.9464H112.032V32.4464H111.572C110.692 32.4464 110.079 32.2131 109.732 31.7464C109.385 31.2798 109.212 30.6798 109.212 29.9464ZM126.346 26.7864V27.9864C126.346 29.3998 125.979 30.5131 125.246 31.3264C124.526 32.1398 123.492 32.5464 122.146 32.5464C120.812 32.5464 119.779 32.1398 119.046 31.3264C118.312 30.5131 117.946 29.3998 117.946 27.9864V26.7864C117.946 25.3998 118.306 24.2998 119.026 23.4864C119.759 22.6598 120.799 22.2464 122.146 22.2464C123.492 22.2464 124.526 22.6598 125.246 23.4864C125.979 24.2998 126.346 25.3998 126.346 26.7864ZM124.646 26.7864C124.646 25.8398 124.432 25.0998 124.006 24.5664C123.579 24.0198 122.959 23.7464 122.146 23.7464C121.346 23.7464 120.726 24.0198 120.286 24.5664C119.859 25.0998 119.646 25.8398 119.646 26.7864V27.9864C119.646 28.9731 119.859 29.7331 120.286 30.2664C120.726 30.7998 121.346 31.0664 122.146 31.0664C122.959 31.0664 123.579 30.7998 124.006 30.2664C124.432 29.7331 124.646 28.9731 124.646 27.9864V26.7864ZM135.746 31.0864C137.079 31.0864 137.746 30.6331 137.746 29.7264C137.746 29.3398 137.626 29.0331 137.386 28.8064C137.146 28.5798 136.706 28.3864 136.066 28.2264L134.966 27.9464C134.153 27.7464 133.546 27.3998 133.146 26.9064C132.746 26.3998 132.546 25.7998 132.546 25.1064C132.546 24.5998 132.659 24.1331 132.886 23.7064C133.113 23.2664 133.473 22.9131 133.966 22.6464C134.459 22.3798 135.099 22.2464 135.886 22.2464C136.393 22.2464 136.906 22.3064 137.426 22.4264C137.959 22.5331 138.499 22.7198 139.046 22.9864L138.526 24.3664C137.553 23.9264 136.673 23.7064 135.886 23.7064C134.726 23.7064 134.146 24.1398 134.146 25.0064C134.146 25.3398 134.253 25.6264 134.466 25.8664C134.679 26.1064 135.079 26.2998 135.666 26.4464L136.766 26.7264C137.646 26.9398 138.293 27.2864 138.706 27.7664C139.119 28.2464 139.326 28.8664 139.326 29.6264C139.326 30.1731 139.206 30.6731 138.966 31.1264C138.739 31.5664 138.366 31.9131 137.846 32.1664C137.339 32.4198 136.653 32.5464 135.786 32.5464C135.213 32.5464 134.639 32.4864 134.066 32.3664C133.506 32.2464 132.926 32.0531 132.326 31.7864L132.766 30.4264C133.339 30.6531 133.859 30.8198 134.326 30.9264C134.793 31.0331 135.266 31.0864 135.746 31.0864Z" fill="black"/>
</svg>
