<svg width="233" height="53" viewBox="0 0 233 53" fill="none" xmlns="http://www.w3.org/2000/svg">
<path d="M36.2448 45.8389C35.8573 45.2863 35.537 44.7479 35.2839 44.2236C35.0321 43.7327 34.7316 43.2769 34.3823 42.8563C34.033 42.4357 33.5031 42.0885 32.7924 41.8149L32.5332 41.5744C31.3266 41.4192 30.1175 41.1975 28.9059 40.9092C27.7276 40.6196 26.5222 40.4978 25.2897 40.5438C24.5569 40.5711 23.808 40.6157 23.0432 40.6777C22.3103 40.705 21.5609 40.733 20.7947 40.7616C20.4283 40.7752 20.0452 40.7895 19.6455 40.8045C19.2791 40.8181 18.9121 40.8151 18.5444 40.7955C18.1929 41.2089 17.7119 41.7272 17.1014 42.3504C16.4909 42.9736 15.8446 43.5314 15.1625 44.0239C14.4804 44.5163 13.8568 44.7898 13.2918 44.8442C12.9328 45.0578 12.5381 45.2059 12.1075 45.2887C11.7103 45.3702 11.3118 45.4185 10.9121 45.4334C10.2126 45.4595 9.64132 45.3474 9.19834 45.0971C8.75537 44.8467 8.51958 44.3385 8.49099 43.5724C8.44251 42.2733 8.80494 41.2591 9.57827 40.5297C10.3849 39.7991 11.3822 39.2615 12.5702 38.917C13.7569 38.5392 14.9659 38.3106 16.1972 38.2313C17.4605 38.1174 18.5091 38.0616 19.3431 38.0638C20.3285 36.7595 21.1615 35.3942 21.8421 33.9678C22.5548 32.5068 23.2508 31.0465 23.9302 29.5869L24.3705 29.3202L24.1095 29.0298L24.6811 28.2579L24.4126 27.7676L25.0048 27.5454L24.8012 27.4529L25.3359 27.0327L25.2266 26.7866L25.5245 26.7254L25.6114 26.3719L25.9869 25.7075C26.1472 25.5347 26.2909 25.3625 26.4179 25.191C26.577 24.9849 26.7201 24.7961 26.8471 24.6246L26.4824 24.2379C26.6057 23.9665 26.729 23.695 26.8523 23.4236C26.9744 23.1188 27.0977 22.8474 27.2222 22.6092L27.1704 22.5611C27.1604 22.2946 27.3479 21.9541 27.7327 21.5394C28.1495 21.0903 28.633 20.6386 29.1832 20.1844C29.7653 19.6957 30.3167 19.2748 30.8372 18.9218C31.3577 18.5689 31.7327 18.338 31.9622 18.2294C32.5063 18.5093 33.0116 18.6406 33.4779 18.6232C33.9443 18.6057 34.4125 18.6383 34.8825 18.7208C35.3847 18.7688 35.914 19.0993 36.4706 19.7123L36.3338 20.0676C36.1968 19.9727 36.0438 19.895 35.8748 19.8346C35.7378 19.7396 35.586 19.6953 35.4195 19.7015L32.4701 21.1125L32.1039 22.0268C31.7611 22.6733 31.2339 23.2934 30.5222 23.887C29.8425 24.4461 29.2401 25.2858 28.7149 26.4062C28.4496 26.4495 28.2208 26.5747 28.0284 26.7821C27.836 26.9894 27.6603 27.1961 27.5012 27.4022L27.8159 27.7907L27.2793 28.161L26.9668 29.1733C26.545 29.4893 26.048 30.0248 25.4757 30.78C24.9368 31.534 24.3516 32.3898 23.7203 33.3473C23.1209 34.2703 22.5376 35.176 21.9704 36.0644C21.4352 36.9183 20.977 37.6026 20.596 38.1171C21.5657 38.181 22.5527 38.2609 23.557 38.3569C24.5946 38.4516 25.5797 38.4815 26.5124 38.4467C27.1453 38.4231 27.7517 38.5839 28.3316 38.9292L28.0412 39.1902C28.109 39.221 28.2262 39.2333 28.3928 39.2271C28.5593 39.2209 28.7092 39.2153 28.8425 39.2103C28.9745 39.1721 29.1065 39.1338 29.2385 39.0955L29.4051 39.5396C29.7062 39.5617 30.0245 39.5999 30.3601 39.6541C30.729 39.707 30.985 39.8642 31.1282 40.1257L31.5798 40.1589C31.9882 40.3772 32.2825 40.6664 32.4627 41.0266C32.675 41.3522 33.0304 41.4891 33.5288 41.4371C33.6595 41.3655 33.7582 41.3285 33.8248 41.326C34.0913 41.3161 34.4319 41.5035 34.8465 41.8883C35.2612 42.2731 35.6277 42.7097 35.9461 43.1982C36.2979 43.6854 36.4787 44.0623 36.4887 44.3288C36.4974 44.5619 36.4561 44.797 36.3649 45.0339C36.3082 45.3028 36.2682 45.5712 36.2448 45.8389ZM28.0437 21.828C28.5321 21.5096 29.0008 21.1085 29.4498 20.6248L29.0556 20.7896C28.9274 20.9278 28.7658 21.0673 28.5709 21.208C28.4081 21.3141 28.2292 21.4375 28.0343 21.5782L28.0437 21.828ZM27.9575 24.8834L28.0075 24.8815L28.2961 24.5705L28.2905 24.4206L28.1831 24.2245L28.037 24.33L27.8539 24.7872L27.9575 24.8834ZM10.8323 44.6358C12.1647 44.5861 13.3323 44.1422 14.3351 43.3042C15.3391 42.4996 16.2919 41.6635 17.1935 40.7959C16.9578 40.738 16.7234 40.7134 16.4903 40.7221C16.2892 40.6962 16.0714 40.671 15.837 40.6464C15.7062 40.718 15.6075 40.755 15.5409 40.7575C15.4077 40.7625 15.2559 40.7181 15.0856 40.6244C14.6205 40.6751 14.1573 40.7758 13.6959 40.9264C13.2679 41.0758 12.8225 41.2092 12.3599 41.3265C12.265 41.4635 12.0355 41.5721 11.6716 41.6524C11.3397 41.6982 10.9777 41.8284 10.5854 42.0432C10.2265 42.2567 9.92494 42.6683 9.68083 43.2778C9.8623 43.6713 9.94135 44.0019 9.91799 44.2696C9.92793 44.5361 10.2327 44.6582 10.8323 44.6358ZM51.2219 43.7289L50.1797 42.617C49.9883 41.957 49.7796 41.281 49.5536 40.5889C49.3622 39.9289 49.2201 39.2504 49.1274 38.5534L49.3418 37.5947L49.24 37.5485C49.3596 37.1771 49.4791 36.8057 49.5987 36.4343C49.7503 36.0284 49.8193 35.6422 49.8056 35.2758C49.6453 35.4486 49.4683 35.622 49.2747 35.796C49.1143 35.9687 48.9885 36.1736 48.8973 36.4105C48.769 36.5487 48.6587 36.7196 48.5662 36.9232C48.4737 37.1268 48.3467 37.2983 48.1851 37.4377L48.1519 37.8893C47.6893 38.0066 47.2317 38.2572 46.779 38.641C46.3584 38.9903 45.9378 39.3395 45.5172 39.6888C45.0954 40.0048 44.6346 40.1721 44.135 40.1907C43.9018 40.1994 43.6014 40.1939 43.2337 40.1743C42.8982 40.1201 42.6446 40.0295 42.4731 39.9025C42.0363 39.8187 41.7155 39.7139 41.5107 39.5882C41.3379 39.4278 41.1935 39.133 41.0774 38.7037L41.253 38.0467L41.0882 37.6526C41.2349 37.1134 41.3372 36.726 41.3951 36.4903C41.4863 36.2534 41.6121 36.0486 41.7724 35.8758C41.9661 35.7018 42.2732 35.4402 42.6938 35.0909C42.7209 34.9231 42.7998 34.8034 42.9306 34.7318C43.0934 34.6257 43.2408 34.5535 43.3728 34.5152L43.4134 34.2635L43.8907 33.6453L44.0443 33.7396L44.3273 33.2787C44.5543 33.1035 44.7837 32.9948 45.0157 32.9528C45.2797 32.8763 45.5258 32.767 45.754 32.6251C45.8069 32.2562 46.0153 32.0316 46.3793 31.9513C46.7753 31.8364 47.0016 31.6445 47.0583 31.3756L47.2581 31.3681L48.087 30.7868L48.3924 30.9255L49.0751 30.4497C49.275 30.4422 49.4576 30.4187 49.6229 30.3792C49.8215 30.3384 50.0041 30.315 50.1706 30.3087L50.3742 30.4012C49.7167 30.6592 48.9649 31.0709 48.1187 31.6362C47.2713 32.1682 46.4443 32.7994 45.6376 33.53C44.863 34.2261 44.2242 34.9838 43.7211 35.8031C43.2179 36.6224 42.9813 37.4318 43.0111 38.2313C43.0347 38.8642 43.3797 39.1682 44.0459 39.1433C44.6454 39.1209 45.2548 38.9147 45.8741 38.5247C46.5266 38.1334 47.1094 37.6614 47.6225 37.1085C48.1355 36.5557 48.4993 36.025 48.7139 35.5167L49.5372 34.7855C49.5976 34.6164 49.6765 34.4968 49.7739 34.4264C49.8714 34.3561 49.9336 34.237 49.9607 34.0692C50.1927 34.0272 50.3518 33.8211 50.438 33.451C50.5243 33.0808 50.6259 32.6767 50.743 32.2387C50.8589 31.7674 51.0271 31.3609 51.2479 31.0191C51.4686 30.6773 51.8122 30.4977 52.2785 30.4802C52.6449 30.4666 53.0675 30.6176 53.5463 30.9333C54.0238 31.2157 54.2707 31.5734 54.2868 32.0064C54.2955 32.2396 54.1124 32.6967 53.7376 33.3778C53.3627 34.059 52.9256 34.8592 52.4262 35.7784C51.9601 36.6964 51.5452 37.6459 51.1816 38.6268C50.8179 39.6077 50.6522 40.5312 50.6845 41.3973C50.6982 41.7637 50.7785 42.1276 50.9254 42.4891C51.1056 42.8493 51.2193 43.2119 51.2662 43.5771L51.2219 43.7289ZM60.5564 40.0282C60.2245 40.0739 59.9364 39.9512 59.692 39.6602C59.4797 39.3345 59.3674 39.0051 59.355 38.672C59.3475 38.4722 59.3733 38.2711 59.4325 38.0687C59.4904 37.8331 59.5496 37.6307 59.61 37.4617C59.6779 37.4925 59.7112 37.4913 59.7099 37.458C59.7407 37.3901 59.7722 37.3389 59.8043 37.3043L59.7338 36.7566C59.7979 36.6875 59.8756 36.5345 59.9668 36.2976C60.0901 36.0261 60.1672 35.8565 60.198 35.7886L60.1961 35.7386L60.2461 35.7368L60.4497 35.8292C60.6063 35.5565 60.7796 35.2832 60.9695 35.0093C61.1594 34.7353 61.2148 34.4331 61.1358 34.1024L61.7999 33.127L61.798 33.077C61.7905 32.8772 61.8657 32.6576 62.0236 32.4182C62.2135 32.1442 62.3066 31.9573 62.3029 31.8574C62.2929 31.5909 62.1714 31.462 61.9382 31.4707C61.8382 31.4744 61.7223 31.4954 61.5903 31.5337C61.4916 31.5707 61.3929 31.6078 61.2942 31.6448L61.2349 31.3969L63.1608 29.3736L63.1571 29.2737C63.5136 28.9935 63.8361 28.698 64.1247 28.387C64.4133 28.076 64.7531 27.7965 65.1441 27.5484C65.5118 27.568 65.8813 27.6376 66.2527 27.7572C66.6574 27.8755 66.9653 28.0809 67.1763 28.3732L67.2505 29.0209L67.2524 29.0708C67.224 29.2053 66.9873 29.5644 66.5421 30.1481C66.0968 30.7317 65.5709 31.3852 64.9641 32.1083C64.356 32.7981 63.7801 33.4534 63.2362 34.0741C62.7256 34.6936 62.3741 35.107 62.1817 35.3143L62.0654 36.2192C61.8001 36.2625 61.5738 36.4544 61.3864 36.795C61.1977 37.1022 61.125 37.3885 61.1682 37.6537C61.0695 37.6907 61.0227 37.7759 61.0277 37.9091C61.0314 38.0091 60.9999 38.0603 60.9333 38.0628C60.905 38.1972 60.876 38.3151 60.8464 38.4162C60.8502 38.5162 60.8545 38.6328 60.8595 38.766L60.8688 39.0158C61.1167 38.5062 61.5581 37.8226 62.1933 36.965C62.8284 36.1074 63.5468 35.2467 64.3485 34.3828C65.1822 33.4844 66.0049 32.7366 66.8165 32.1392C67.6269 31.5086 68.3152 31.1827 68.8815 31.1615C69.2812 31.1466 69.557 31.3865 69.7089 31.8812C69.6326 32.5178 69.4897 33.1569 69.2801 33.7985C69.0693 34.4068 68.9763 35.044 69.0012 35.7102L69.1086 35.9064L70.2761 35.0122L70.3704 34.8586L71.0994 34.281C71.3189 33.9059 71.7006 33.408 72.2444 32.7872C72.7883 32.1665 73.368 31.6112 73.9835 31.1212C74.5978 30.598 75.1048 30.3289 75.5045 30.3139C75.4687 30.2486 75.5174 30.2134 75.6506 30.2084C76.2169 30.1873 76.5883 30.3068 76.7648 30.5671C76.9413 30.8274 77.0389 31.2073 77.0575 31.707C77.0762 32.2066 76.9603 32.678 76.71 33.1209C76.4917 33.5294 76.3913 33.9667 76.4087 34.4331C76.4249 34.8661 76.5589 35.3281 76.8107 35.8191C77.0625 36.31 77.4382 36.5462 77.9379 36.5275C78.1045 36.5213 78.2531 36.4824 78.3839 36.4108C78.5134 36.3059 78.662 36.267 78.8298 36.2941C79.0864 36.0177 79.3608 35.7739 79.6531 35.5629C79.9775 35.3173 80.3025 35.0883 80.6282 34.876L80.9354 35.0647C80.843 35.2683 80.587 35.5614 80.1677 35.9439C79.7804 36.292 79.3105 36.6597 78.7579 37.0473C78.2373 37.4003 77.7322 37.7193 77.2425 38.0045C76.7849 38.255 76.4395 38.3847 76.2063 38.3934C75.4735 38.4207 74.9466 38.1569 74.6257 37.6018C74.3368 37.0121 74.1281 36.3361 73.9996 35.5737C73.8711 34.8113 73.6815 34.2013 73.4309 33.7437L73.1737 33.5531C72.9134 33.7296 72.5076 34.0283 71.9562 34.4491C71.4369 34.8354 71.1156 35.1643 70.9924 35.4358C70.5976 35.5839 70.2584 35.8801 69.9748 36.3243C69.7232 36.734 69.4735 37.1936 69.2257 37.7032C68.9766 38.1795 68.6924 38.6071 68.3729 38.9859C68.0535 39.3648 67.6273 39.5641 67.0943 39.584C66.8612 39.5927 66.6428 39.5509 66.4392 39.4584C66.2689 39.3647 66.1788 39.1846 66.1689 38.9181C66.1477 38.3518 66.2284 37.8318 66.4109 37.358C66.6254 36.8496 66.8232 36.3419 67.0045 35.8348C67.219 35.3264 67.3157 34.7891 67.2945 34.2228L66.978 33.7843C66.5782 33.7993 66.0873 34.0511 65.5051 34.5398C64.9217 34.9952 64.3093 35.5684 63.668 36.2595C63.0587 36.916 62.4994 37.5707 61.9901 38.2235C61.514 38.875 61.1823 39.371 60.9949 39.7116L61.0042 39.9614L60.5564 40.0282ZM86.8272 40.5988C86.5274 40.61 86.2424 40.5706 85.9722 40.4806L85.7112 40.1902C85.2065 40.0756 84.8499 39.9054 84.6414 39.6797C84.4328 39.454 84.3186 39.0747 84.2987 38.5417C84.29 38.3085 84.3404 37.873 84.4501 37.2351C84.5918 36.5627 84.768 35.9224 84.9788 35.3141C85.1896 34.7058 85.4116 34.3973 85.6447 34.3886C85.6644 34.0209 85.7802 33.5496 85.9923 32.9747C86.2043 32.3997 86.4917 32.0554 86.8543 31.9418L86.8525 31.8918L87.2798 31.2755L87.3797 31.2717L87.4517 30.5185C87.5504 30.4815 87.6299 30.3784 87.6903 30.2094L84.6872 31.5223L84.3799 31.3336C84.407 31.1659 84.5507 30.9937 84.811 30.8172C85.1033 30.6062 85.3969 30.4284 85.6917 30.284C86.0186 30.105 86.2486 30.013 86.3819 30.0081C86.837 29.6909 87.2805 29.5075 87.7123 29.4581L87.9047 29.2507L88.2064 29.2895L88.7985 29.0673C88.9576 28.8612 89.116 28.6385 89.2739 28.3991C89.4317 28.1597 89.5057 27.9068 89.4957 27.6403C89.6524 27.3676 89.8269 27.1276 90.0193 26.9203C90.2437 26.6784 90.4515 26.4371 90.6427 26.1965L90.7926 26.1909C90.9529 26.0181 91.133 25.928 91.3329 25.9206L91.5234 25.6633L91.5029 25.1137L91.6972 24.9563C91.8563 24.7502 92.0616 24.4424 92.3132 24.0327C92.5968 23.5885 92.7343 23.2498 92.7256 23.0166C92.7206 22.8834 92.6015 22.8211 92.3683 22.8298C92.0686 22.841 91.82 22.8836 91.6226 22.9577L91.6133 22.7079L94.0813 20.4643L94.0795 20.4143C94.5013 20.0984 94.9059 19.7664 95.2932 19.4184C95.6792 19.037 96.0838 18.705 96.5069 18.4224C96.8758 18.4753 97.2798 18.577 97.7191 18.7274C98.1571 18.8445 98.4662 19.0831 98.6464 19.4433L98.6707 20.0929C98.4462 20.3347 98.062 20.766 97.5181 21.3868C96.9742 22.0075 96.3502 22.7146 95.6459 23.508C94.9404 24.2682 94.235 25.0284 93.5295 25.7886C92.8228 26.5154 92.195 27.1226 91.6461 27.6101C91.1306 28.0963 90.7735 28.3598 90.5749 28.4006L90.2844 28.6616C90.8149 28.5751 91.312 28.4898 91.7759 28.4058C92.2718 28.2872 92.7696 28.2186 93.2692 28.1999C93.9021 28.1763 94.5887 28.2508 95.329 28.4233C96.1026 28.5946 96.6351 29.0083 96.9264 29.6646L97.2374 29.9532L97.256 30.4528C97.2943 30.5848 97.3326 30.7168 97.3709 30.8488C97.4092 30.9808 97.4308 31.1134 97.4358 31.2467C97.4494 31.6131 97.3755 31.866 97.2139 32.0055C97.0511 32.1116 96.887 32.1845 96.7217 32.224C96.5564 32.2635 96.4762 32.3499 96.4812 32.4831L96.8865 32.6181L96.8884 32.6681C96.9008 33.0012 96.6184 33.4787 96.0412 34.1007C95.4973 34.7214 94.7888 35.3983 93.9155 36.1314C93.0422 36.8644 92.1184 37.5827 91.1439 38.2862C90.2016 38.9552 89.3381 39.5044 88.5536 39.934C87.7691 40.3635 87.1936 40.5852 86.8272 40.5988ZM90.9399 23.4335L90.8843 23.2855L91.0211 22.9301L91.3228 22.9689L91.4358 23.3149L90.9399 23.4335ZM87.3007 39.8807C87.9003 39.8583 88.5713 39.5164 89.3139 38.8549C90.0564 38.1934 90.7766 37.3826 91.4747 36.4226C92.1714 35.4293 92.7362 34.4742 93.169 33.5574C93.6338 32.6061 93.8563 31.8639 93.8364 31.331C93.8103 30.6315 93.4586 30.1442 92.7812 29.8693C92.1371 29.5931 91.5319 29.4656 90.9656 29.4868C90.899 29.4892 90.767 29.5275 90.5696 29.6016C90.3723 29.6757 90.2242 29.7312 90.1255 29.7683L90.0312 29.9219C89.6685 30.0355 89.3595 30.2472 89.1043 30.5569C88.8823 30.8654 88.7787 31.2195 88.7937 31.6192C88.6617 31.6575 88.4366 31.8827 88.1184 32.2949C87.8323 32.6725 87.5085 32.9348 87.147 33.0817L86.9696 33.6887C86.945 33.9231 86.8204 34.1613 86.5959 34.4031C86.4035 34.6105 86.2272 34.8005 86.0668 34.9733C85.9189 35.4791 85.7544 35.9856 85.5732 36.4927C85.4253 36.9986 85.3279 37.5193 85.2812 38.0547C85.3391 37.8191 85.431 37.5988 85.5568 37.394C85.7146 37.1546 85.7892 36.9183 85.7805 36.6851L86.0247 36.5259L86.4408 35.6098L86.4334 35.4099L86.7127 34.8491L86.8644 34.8935L87.0013 34.5381L87.2436 34.3289L87.2418 34.279C87.3725 34.2074 87.4866 34.1364 87.5841 34.0661C87.7136 33.9612 87.8271 33.8735 87.9245 33.8032C87.9146 33.5367 88.0403 33.3319 88.3018 33.1887C88.5633 33.0455 88.7064 32.8567 88.731 32.6223L89.0271 32.5112L89.3601 32.0484L89.5599 32.041L90.0428 31.5726L90.5368 31.4041L90.5443 31.6039C89.9571 31.9594 89.362 32.5487 88.759 33.3718C88.1547 34.1615 87.6368 35.0314 87.2052 35.9815C86.8058 36.897 86.6191 37.7046 86.6452 38.4041C86.6539 38.6373 86.6817 38.9364 86.7287 39.3016C86.8103 39.6988 87.0009 39.8919 87.3007 39.8807ZM85.213 38.9079L85.3517 38.6025L85.348 38.5025L85.2462 38.4563L85.213 38.9079ZM85.2797 39.3557L85.2779 39.3057L85.5165 38.9966L85.4665 38.9985L85.2148 38.9578L85.2797 39.3557ZM106.649 37.2072C106.15 37.2259 105.729 37.1248 105.387 36.9041C105.044 36.65 104.731 36.3115 104.449 35.8884L104.349 35.8921L104.384 35.4905L104.286 35.5442L104.274 35.2444L104.517 35.0352L104.417 35.039L104.108 34.8003L104.208 34.7966L104.3 34.593L104.296 34.4931L104.187 34.247L104.183 34.1471L104.083 34.1508L103.371 33.8271L103.365 33.6772C103.123 33.4528 102.914 33.2104 102.738 32.9501C102.593 32.6553 102.515 32.3414 102.502 32.0083C102.485 31.5419 102.664 30.9848 103.041 30.337C103.45 29.688 103.928 29.1031 104.476 28.5823C105.057 28.0602 105.581 27.7905 106.047 27.7731C106.271 27.5312 106.6 27.4022 107.033 27.3861L107.178 27.2306L107.429 27.2712C107.789 27.091 108.187 27.0261 108.623 27.0766L108.669 26.9748L111.467 26.8704C111.734 26.8604 112.069 26.9146 112.474 27.0329C112.912 27.15 113.249 27.2375 113.484 27.2954C113.797 27.6173 114.206 27.8689 114.713 28.0501C115.219 28.198 115.483 28.5551 115.504 29.1214C115.53 29.8209 115.355 30.4945 114.979 31.1424C114.603 31.7902 114.155 32.3072 113.636 32.6935L113.586 32.6954C113.556 32.7966 113.396 32.9693 113.105 33.2137C112.846 33.4235 112.554 33.6512 112.23 33.8968C111.937 34.1078 111.743 34.2652 111.647 34.3689L111.514 34.8241C111.281 34.8328 111.067 34.9242 110.874 35.0982C110.679 35.2389 110.586 35.4258 110.594 35.659C110.666 35.7898 110.82 35.9008 111.057 35.992C111.293 36.0499 111.494 36.0758 111.66 36.0695L111.464 36.1769C110.398 36.2167 109.585 36.3304 109.025 36.5181C108.464 36.6725 108.019 36.8225 107.691 36.9682C107.363 37.1139 107.016 37.1935 106.649 37.2072ZM107.95 35.8578C108.964 35.3196 109.666 34.9098 110.055 34.6284C110.477 34.3124 110.768 34.0514 110.927 33.8454C111.085 33.606 111.29 33.2981 111.543 32.9217C111.796 32.5454 112.259 32.011 112.934 31.3187L112.93 31.2188C112.797 31.2238 112.68 31.2115 112.579 31.1819C112.601 30.8809 112.657 30.5952 112.747 30.325C112.869 30.0203 112.924 29.7013 112.911 29.3682C112.889 28.7686 112.638 28.2944 112.158 27.9453C111.71 27.5618 111.203 27.3806 110.636 27.4017C110.337 27.4129 110.021 27.458 109.691 27.5371C109.393 27.6149 109.113 27.7087 108.851 27.8186L108.199 27.7929C107.674 28.0126 107.085 28.3348 106.434 28.7594C105.816 29.1827 105.284 29.6862 104.839 30.2699C104.393 30.8203 104.182 31.4285 104.207 32.0947C104.219 32.4279 104.296 32.7085 104.438 32.9367L104.64 32.9792L104.635 32.8293L104.879 32.6701L105.201 31.9076L105.193 31.7077L105.476 31.2468L105.578 31.2931L105.717 30.9877L105.961 30.8285L105.959 30.7785C106.058 30.7414 106.156 30.7044 106.255 30.6674C106.387 30.6291 106.502 30.5748 106.599 30.5044C106.589 30.2379 106.7 30.0837 106.932 30.0417C107.163 29.9664 107.291 29.8115 107.315 29.5771L107.615 29.5659L107.95 29.1531L108.155 29.2956L108.594 28.979L109.043 28.9622L109.049 29.1121C108.554 29.264 108.018 29.6509 107.441 30.2729C106.863 30.8615 106.387 31.5131 106.013 32.2275C105.639 32.9419 105.48 33.5816 105.534 34.1467L105.618 35.0442C105.99 35.1971 106.364 35.3832 106.739 35.6027C107.113 35.7889 107.517 35.8739 107.95 35.8578ZM106.514 36.2616L106.808 36.1005L105.638 35.5938L105.54 35.6475L105.757 36.0897L106.514 36.2616ZM128.298 37.0497C127.798 37.0684 127.408 36.8828 127.126 36.493L125.957 35.9863C125.812 35.6915 125.732 35.3276 125.716 34.8945C125.69 34.195 125.828 33.4393 126.131 32.6275C126.467 31.781 126.79 31.0685 127.102 30.4898C126.864 30.3652 126.658 30.2061 126.484 30.0125C126.31 29.8188 126.136 29.6252 125.962 29.4316L125.809 29.3372C125.68 29.4754 125.535 29.5976 125.372 29.7038C125.209 29.8099 125.045 29.8827 124.88 29.9223C124.591 30.2332 124.177 30.7491 123.637 31.4697C123.095 32.157 122.505 32.8796 121.866 33.6372C121.226 34.3616 120.599 35.0021 119.986 35.5587C119.407 36.114 118.934 36.3985 118.567 36.4122L118.514 36.3141C118.539 36.113 118.681 35.8909 118.939 35.6478C119.229 35.3701 119.438 35.1622 119.566 35.024C119.623 34.755 119.781 34.5156 120.04 34.3058C120.299 34.096 120.543 33.9368 120.772 33.8282L120.822 33.8263L121.105 33.3654L121.35 33.2062L121.298 33.1581L121.638 32.8952C121.699 32.7262 121.793 32.5726 121.921 32.4343C122.05 32.2961 122.161 32.1585 122.256 32.0216L122.252 31.9216C122.964 31.328 123.607 30.6869 124.182 29.9983C124.789 29.2752 125.413 28.5681 126.054 27.877L126.102 27.8252L126.041 27.5273C126.028 27.1609 126.096 26.758 126.246 26.3188C126.429 25.845 126.632 25.4872 126.857 25.2453C127.077 24.9035 127.347 24.5432 127.667 24.1643C128.018 23.7509 128.411 23.5361 128.844 23.52C129.177 23.5075 129.383 23.6666 129.462 23.9973C129.54 24.2946 129.583 24.5598 129.592 24.793C129.623 25.6257 129.43 26.2833 129.015 26.7659C128.598 27.215 128.161 27.5649 127.703 27.8155C127.279 28.0648 127.072 28.3227 127.082 28.5892L127.894 28.9091L128.184 28.6481L128.236 28.6962L128.336 28.6925C128.532 28.5851 128.729 28.4944 128.926 28.4203C129.123 28.3129 129.337 28.2549 129.57 28.2462C129.77 28.2387 129.973 28.2979 130.177 28.4236C130.381 28.5161 130.551 28.6098 130.688 28.7048L130.755 29.1526C130.8 29.4512 130.679 29.7892 130.393 30.1668C130.139 30.5099 129.82 30.922 129.438 31.4033C129.055 31.8512 128.725 32.3973 128.448 33.0413C128.171 33.6521 128.047 34.3572 128.077 35.1567C128.085 35.3565 128.126 35.5718 128.201 35.8025C128.309 35.9986 128.496 36.0917 128.762 36.0818C129.162 36.0668 129.606 35.9002 130.094 35.5817C130.583 35.2633 131.07 34.9115 131.556 34.5265C132.041 34.1081 132.446 33.7928 132.772 33.5805L132.981 33.8229C132.989 34.056 132.8 34.3466 132.413 34.6946C132.026 35.0427 131.555 35.3938 131.001 35.748C130.447 36.1023 129.908 36.4059 129.384 36.659C128.893 36.9108 128.531 37.041 128.298 37.0497ZM136.913 47.4857C136.313 47.5081 135.707 47.3473 135.094 47.0032C134.48 46.6592 133.963 46.2115 133.543 45.6601C133.088 45.11 132.85 44.5352 132.828 43.9356L132.966 43.6302C133.313 43.9842 133.578 44.3746 133.761 44.8014C133.943 45.2282 134.19 45.5693 134.499 45.8246C134.777 46.1144 135.266 46.2463 135.965 46.2202C136.098 46.2152 136.231 46.1936 136.363 46.1553C136.495 46.117 136.627 46.0787 136.759 46.0405C137.063 46.1292 137.505 45.9292 138.088 45.4405C138.703 44.9505 139.314 44.3273 139.919 43.5709C140.559 42.8465 141.099 42.1259 141.54 41.4089C142.014 40.7241 142.263 40.2311 142.285 39.9301C142.788 39.1108 143.257 38.276 143.693 37.4259C144.128 36.5757 144.564 35.7422 145 34.9254L145.026 34.274L145.466 34.0073L145.364 33.9611L145.448 33.5077L145.335 33.1617C145.206 33.2999 145.044 33.4227 144.848 33.5301C144.651 33.6042 144.471 33.7109 144.31 33.8504L144.276 34.3019C143.814 34.4193 143.356 34.6698 142.904 35.0537C142.483 35.4029 142.062 35.7522 141.642 36.1014C141.22 36.4174 140.759 36.5847 140.259 36.6033C140.026 36.612 139.726 36.6066 139.358 36.5869C139.023 36.5327 138.769 36.4421 138.598 36.3151C138.161 36.2313 137.84 36.1266 137.635 36.0008C137.429 35.8417 137.285 35.5469 137.202 35.1163L137.378 34.4593L137.213 34.0652C137.361 33.5593 137.464 33.1886 137.521 32.9529C137.613 32.716 137.738 32.5112 137.899 32.3384C138.091 32.1311 138.398 31.8528 138.818 31.5035C138.845 31.3357 138.924 31.216 139.055 31.1445C139.218 31.0383 139.365 30.9661 139.497 30.9278L139.538 30.6761L140.015 30.0579L140.169 30.1522L140.452 29.6914C140.679 29.5161 140.908 29.4075 141.14 29.3655C141.404 29.2889 141.65 29.1796 141.878 29.0377C141.931 28.6688 142.14 28.4442 142.504 28.3639C142.9 28.2491 143.126 28.0571 143.183 27.7882L143.383 27.7807L144.212 27.1994L144.517 27.3381L145.2 26.8623C145.399 26.8549 145.582 26.8314 145.747 26.7918C145.946 26.7511 146.129 26.7276 146.295 26.7214L146.499 26.8138C145.841 27.0719 145.089 27.4835 144.243 28.0488C143.396 28.5808 142.569 29.2121 141.762 29.9427C140.988 30.6387 140.349 31.3964 139.846 32.2157C139.342 33.0351 139.106 33.8444 139.136 34.6439C139.159 35.2768 139.504 35.5808 140.17 35.5559C140.77 35.5336 141.379 35.3274 141.999 34.9373C142.651 34.546 143.234 34.074 143.747 33.5211C144.26 32.9683 144.624 32.4377 144.838 31.9293L145.662 31.1981L146.085 30.4818C146.317 30.4398 146.476 30.2337 146.563 29.8636C146.649 29.4934 146.734 29.09 146.818 28.6532C146.933 28.1819 147.118 27.7747 147.372 27.4317C147.66 27.0874 148.087 26.9047 148.653 26.8836C148.953 26.8724 149.256 26.9445 149.562 27.0998C149.868 27.2552 150.027 27.5161 150.041 27.8825C150.047 28.049 149.929 28.4537 149.686 29.0966C149.477 29.7382 149.188 30.4994 148.821 31.3804C148.453 32.2614 148.069 33.143 147.668 34.0252C147.3 34.8729 146.945 35.6367 146.603 36.3166C146.294 36.9619 146.075 37.3703 145.948 37.5418C145.923 37.7429 145.867 38.0286 145.78 38.3987C145.729 38.8009 145.604 39.039 145.407 39.1131C144.909 40.0657 144.358 40.9535 143.755 41.7766C143.152 42.5996 142.567 43.4554 141.999 44.3438L141.115 44.7771C141.02 44.9141 140.908 45.0517 140.78 45.1899C140.685 45.3269 140.556 45.4484 140.393 45.5546L140.242 45.5102C139.795 46.0606 139.312 46.5122 138.791 46.8652C138.305 47.2503 137.679 47.4571 136.913 47.4857ZM156.348 37.7041C155.915 37.7203 155.623 37.5143 155.474 37.0863C155.359 36.6903 155.296 36.3257 155.283 35.9926C155.274 35.7594 155.308 35.3079 155.383 34.638C155.491 33.9668 155.634 33.3277 155.811 32.7206C155.988 32.0803 156.192 31.7558 156.426 31.7471C156.445 31.3794 156.561 30.9081 156.773 30.3331C156.985 29.7581 157.272 29.4139 157.635 29.3002L157.633 29.2503C157.696 29.1479 157.776 29.0448 157.872 28.9412C157.968 28.8375 158.064 28.7338 158.161 28.6302L158.207 28.5284L158.209 28.5784L158.232 27.877C158.395 27.7708 158.522 27.5993 158.614 27.3624C158.704 27.0922 158.829 26.8874 158.991 26.7479L159.146 26.8922C159.37 26.617 159.609 26.3412 159.866 26.0648C160.155 25.7538 160.291 25.3985 160.277 24.9987C160.433 24.726 160.608 24.486 160.8 24.2787C161.025 24.0368 161.232 23.7956 161.424 23.555L161.573 23.5494C161.734 23.3766 161.914 23.2865 162.114 23.279L162.304 23.0217L162.284 22.4721L162.478 22.3148C162.636 22.0754 162.84 21.7342 163.09 21.2912C163.341 20.8483 163.461 20.5102 163.453 20.277C163.449 20.1771 163.364 20.1302 163.197 20.1364C163.064 20.1414 162.915 20.1803 162.751 20.2531C162.586 20.2927 162.47 20.3137 162.403 20.3162L162.394 20.0663L164.862 17.8227L164.86 17.7728C165.282 17.4568 165.687 17.1248 166.074 16.7768C166.46 16.3955 166.865 16.0635 167.288 15.7809C167.657 15.8338 168.061 15.9355 168.5 16.0859C168.938 16.2029 169.247 16.4416 169.427 16.8018L169.451 17.4513C169.227 17.6932 168.843 18.1245 168.299 18.7452C167.755 19.3659 167.131 20.073 166.427 20.8665C165.721 21.6267 165.016 22.3868 164.31 23.147C163.604 23.8739 162.976 24.4811 162.427 24.9685C161.911 25.4548 161.554 25.7183 161.356 25.759L160.777 26.331L161.043 26.7714L160.812 27.2804C160.548 27.3569 160.273 27.584 159.987 27.9616C159.733 28.3047 159.611 28.6261 159.623 28.9259C159.328 29.0703 159.133 29.2276 159.04 29.3979C158.979 29.567 158.886 29.7372 158.759 29.9088C158.665 30.079 158.388 30.2562 157.928 30.4401L157.787 30.6955L157.828 31.7948L158.034 31.9372L157.78 31.8466L157.595 32.2538L157.495 32.2575C157.408 32.5943 157.371 32.946 157.385 33.3124L157.657 33.9026C157.784 33.7311 158.041 33.4713 158.428 33.1233C158.814 32.742 158.988 32.4687 158.948 32.3034L159.333 31.8887C159.42 31.5519 159.638 31.1268 159.986 30.6135C160.366 30.0656 160.781 29.5665 161.231 29.116C161.681 28.6656 162.073 28.4342 162.406 28.4217L162.404 28.3718L163.155 28.3938C163.63 28.6095 163.928 28.9987 164.049 29.5612C164.17 30.1238 164.345 30.7844 164.574 31.543C164.834 32.2672 165.362 33.0146 166.158 33.7855L166.939 33.256L167.089 33.2504C167.216 33.0789 167.41 32.9215 167.672 32.7784C167.967 32.6339 168.212 32.508 168.408 32.4006L168.46 32.4487C168.466 32.6153 168.227 32.9077 167.742 33.3261C167.291 33.7432 166.805 34.1283 166.284 34.4813C165.764 34.8343 165.388 35.0484 165.158 35.1238L165.004 35.0294L164.508 35.148L164.349 34.9038C163.512 34.8349 162.905 34.6408 162.526 34.3213C162.146 33.9686 161.881 33.5782 161.732 33.1502C161.615 32.7208 161.517 32.3242 161.437 31.9603C161.357 31.5964 161.165 31.3701 160.861 31.2813C160.637 31.5232 160.429 31.7644 160.238 32.0051C160.047 32.2457 159.856 32.503 159.666 32.7769C159.371 32.9213 159.083 33.249 158.802 33.7598C158.554 34.2694 158.308 34.829 158.064 35.4385C157.854 36.0468 157.606 36.573 157.323 37.0173C157.039 37.4615 156.714 37.6904 156.348 37.7041ZM161.721 20.792L161.665 20.6439L161.802 20.2886L162.104 20.3274L162.217 20.6734L161.721 20.792ZM182.847 38.4664L182.053 37.2952C182.012 37.0966 181.938 36.8992 181.83 36.7031C181.756 36.5057 181.715 36.2904 181.706 36.0572C181.694 35.7241 181.699 35.4237 181.723 35.156C181.745 34.855 181.766 34.5373 181.787 34.2029L182.107 33.3904L182.053 33.2924C182.115 33.1566 182.16 33.0215 182.188 32.8871C182.249 32.718 182.293 32.5663 182.321 32.4318L182.116 32.2893C181.883 32.298 181.558 32.5436 181.143 33.0261C180.759 33.4741 180.309 33.9245 179.792 34.3774C179.309 34.8291 178.734 35.0674 178.068 35.0923C177.635 35.1084 177.23 34.9901 176.854 34.7373C176.477 34.4845 176.296 34.091 176.309 33.5568L176.256 33.4587C176.597 32.7788 176.888 32.0842 177.128 31.3747C177.369 30.6652 177.626 29.9718 177.901 29.2944L177.581 28.756L177.433 28.8116L177.179 28.721L176.698 29.2393L176.005 29.4153L176.114 29.6614L176.014 29.6651L175.52 29.8336L175.427 30.0372L175.128 30.0484L175.089 30.3501C174.928 30.5228 174.752 30.7129 174.56 30.9202C174.367 31.1275 174.138 31.2528 173.873 31.296L170.982 34.2559L170.926 34.1079C170.917 33.8747 170.994 33.6884 171.155 33.549C171.316 33.3762 171.46 33.2207 171.588 33.0825L171.634 32.9807L171.781 32.8752L171.832 32.9233L171.969 32.5679L171.919 32.5698C171.983 32.5007 172.047 32.4149 172.11 32.3125C172.205 32.1755 172.319 32.1046 172.452 32.0996L172.552 32.0959C172.552 32.0959 172.551 32.0626 172.548 31.9959C172.737 31.6887 172.994 31.4123 173.318 31.1667L173.468 31.1611L173.612 31.0056L173.559 30.9075L174.051 30.689C174.005 30.3571 174.258 29.9808 174.809 29.5599C175.36 29.1391 175.964 28.7663 176.619 28.4417C177.272 28.0837 177.733 27.8998 177.999 27.8898C178.365 27.8761 178.802 27.9599 179.309 28.1411C179.815 28.289 180.077 28.5961 180.094 29.0625C180.129 29.9952 179.99 30.7509 179.678 31.3296C179.367 31.9083 179.197 32.2815 179.17 32.4493L179.324 32.5437C179.723 32.5287 180.035 32.4003 180.26 32.1585C180.483 31.8833 180.706 31.6081 180.929 31.3329C181.186 31.0565 181.497 30.8948 181.862 30.8478C181.827 30.8157 181.844 30.7985 181.91 30.796C181.976 30.7602 182.009 30.7756 182.012 30.8422C182.136 30.6041 182.423 30.2265 182.87 29.7094C183.317 29.159 183.781 28.6414 184.263 28.1564C184.746 27.6714 185.087 27.4252 185.287 27.4177C185.653 27.404 186.074 27.5217 186.551 27.7708C187.027 28.0199 187.272 28.3443 187.287 28.744C187.294 28.9106 187.172 29.232 186.923 29.7083C186.706 30.15 186.44 30.6269 186.126 31.139C185.811 31.6511 185.495 32.1132 185.177 32.5253C184.891 32.9029 184.666 33.1282 184.502 33.201C184.222 33.7451 183.828 34.3769 183.322 35.0963C182.847 35.7812 182.622 36.4567 182.647 37.1229C182.655 37.3561 182.697 37.5714 182.771 37.7687C182.845 37.9661 182.886 38.1647 182.893 38.3646L182.847 38.4664ZM200.425 22.3496C200.325 22.3533 200.057 22.33 199.622 22.2795C199.218 22.1945 199.014 22.0854 199.009 21.9521C198.99 21.4525 199.227 21.0767 199.717 20.8249C200.242 20.5719 200.666 20.3225 200.99 20.0769L201.09 20.0732C201.543 19.6894 202.083 19.419 202.711 19.2622C203.373 19.1041 203.986 18.9978 204.551 18.9434L204.503 18.9952C203.877 19.2187 203.325 19.6062 202.845 20.1578C202.364 20.6761 201.915 21.1765 201.5 21.659C201.116 22.107 200.758 22.3372 200.425 22.3496ZM194.498 36.4805L193.655 35.3611C193.613 35.1292 193.555 34.9145 193.481 34.7172C193.406 34.4865 193.364 34.2546 193.355 34.0214C193.344 33.7216 193.349 33.4212 193.372 33.1201C193.394 32.8191 193.416 32.5181 193.438 32.217L193.756 31.3546L193.704 31.3065C193.856 30.9005 194.003 30.378 194.146 29.7389C194.289 29.0998 194.465 28.4594 194.675 27.8179C194.916 27.1417 195.212 26.5803 195.563 26.1336C195.912 25.6536 196.353 25.4036 196.886 25.3837C197.252 25.37 197.673 25.4877 198.15 25.7368C198.626 25.9859 198.872 26.3269 198.888 26.76C198.894 26.9265 198.772 27.2313 198.522 27.6743C198.305 28.116 198.04 28.6096 197.727 29.155C197.412 29.667 197.096 30.1292 196.778 30.5413C196.492 30.9189 196.283 31.1435 196.152 31.2151C195.873 31.7593 195.479 32.391 194.972 33.1104C194.465 33.8298 194.223 34.4893 194.246 35.0889C194.254 35.3221 194.296 35.5374 194.37 35.7347C194.477 35.9309 194.535 36.1455 194.544 36.3787L194.498 36.4805ZM204.623 35.3021C204.256 35.3157 203.983 35.1591 203.804 34.8323C203.66 34.5374 203.582 34.2401 203.571 33.9403C203.539 33.0743 203.705 32.1674 204.07 31.2198C204.468 30.271 204.853 29.406 205.224 28.625C205.627 27.8094 205.821 27.1851 205.804 26.752C205.797 26.5522 205.677 26.4566 205.444 26.4653C205.344 26.469 205.195 26.5079 204.998 26.582L204.99 26.3822L206.137 24.9384L206.135 24.8884C206.296 24.7156 206.439 24.5435 206.566 24.372C206.693 24.2005 206.821 24.0456 206.949 23.9074L207.388 23.5908C207.755 23.6104 208.109 23.6973 208.448 23.8514C208.82 23.971 209.063 24.2454 209.179 24.6747L209.131 24.7266C209.175 24.9918 209.068 25.2793 208.813 25.589C208.558 25.8988 208.333 26.1406 208.14 26.3146C207.954 26.6885 207.733 27.047 207.479 27.39C207.257 27.6985 207.053 28.0397 206.867 28.4136L206.886 28.9132L206.701 29.3204L206.601 29.3241C206.508 29.5277 206.417 29.748 206.325 29.9849C206.267 30.2205 206.243 30.4716 206.253 30.7381L206.518 31.1285C206.614 31.0248 206.792 30.8681 207.051 30.6583C207.342 30.4139 207.6 30.1708 207.824 29.9289C208.049 29.687 208.159 29.5161 208.155 29.4162L208.686 28.8961C208.834 28.3902 209.181 27.8435 209.726 27.2561C210.27 26.6354 210.735 26.1511 211.123 25.803L211.258 25.3977C211.454 25.2903 211.649 25.1663 211.844 25.0256C212.072 24.8836 212.303 24.8083 212.536 24.7996C212.803 24.7897 213.038 24.8476 213.243 24.9734C213.481 25.0979 213.72 25.2225 213.958 25.347C213.963 25.4802 213.969 25.6468 213.976 25.8466C214.016 26.012 214.039 26.1779 214.045 26.3444C214.065 26.8774 213.934 27.3826 213.651 27.8602C213.369 28.3377 213.087 28.8319 212.806 29.3427C212.525 29.8536 212.398 30.4754 212.425 31.2082C212.429 31.3082 212.438 31.5413 212.451 31.9077C212.497 32.2396 212.56 32.5708 212.639 32.9014C212.75 33.1975 212.905 33.3418 213.105 33.3344L214.672 32.4253L214.772 32.4215C214.831 32.2192 214.941 32.0316 215.101 31.8589C215.295 31.6849 215.508 31.5935 215.742 31.5848L215.793 31.6329C215.8 31.7995 215.659 32.0549 215.372 32.3992C215.118 32.7422 214.83 33.0698 214.508 33.3821C214.219 33.693 214.011 33.9176 213.882 34.0559C213.75 34.0941 213.602 34.133 213.437 34.1726C213.27 34.1788 213.105 34.2183 212.941 34.2911L212.781 34.0469C212.046 34.0076 211.421 33.7808 210.905 33.3664C210.421 32.9175 210.165 32.3266 210.138 31.5938C210.129 31.3606 210.164 30.9424 210.241 30.3391C210.318 29.7024 210.411 29.0819 210.522 28.4773C210.666 27.8715 210.767 27.4508 210.825 27.2151C210.435 27.4965 210.068 27.9272 209.723 28.5071C209.376 29.0538 209.06 29.5159 208.774 29.8935C208.446 30.0392 208.109 30.402 207.764 30.9819C207.45 31.5273 207.123 32.1399 206.781 32.8198C206.439 33.4664 206.093 34.0463 205.746 34.5597C205.397 35.0397 205.022 35.2872 204.623 35.3021ZM227.057 21.3557C226.957 21.3594 226.689 21.3361 226.254 21.2856C225.85 21.2006 225.646 21.0915 225.641 20.9582C225.622 20.4586 225.858 20.0828 226.349 19.831C226.874 19.578 227.298 19.3286 227.622 19.083L227.722 19.0793C228.175 18.6955 228.715 18.4251 229.343 18.2683C230.004 18.1102 230.617 18.0039 231.183 17.9495L231.134 18.0013C230.509 18.2248 229.956 18.6123 229.477 19.1639C228.996 19.6822 228.547 20.1826 228.132 20.6651C227.748 21.1131 227.39 21.3433 227.057 21.3557ZM221.13 35.4866L220.287 34.3672C220.245 34.1353 220.187 33.9206 220.113 33.7233C220.038 33.4926 219.996 33.2606 219.987 33.0275C219.976 32.7277 219.981 32.4273 220.003 32.1262C220.026 31.8252 220.048 31.5242 220.07 31.2231L220.388 30.3607L220.336 30.3126C220.488 29.9066 220.635 29.3841 220.778 28.745C220.921 28.1059 221.097 27.4655 221.307 26.824C221.548 26.1478 221.844 25.5864 222.194 25.1397C222.543 24.6597 222.984 24.4097 223.517 24.3898C223.884 24.3761 224.305 24.4938 224.781 24.7429C225.258 24.992 225.504 25.333 225.52 25.7661C225.526 25.9326 225.404 26.2374 225.154 26.6804C224.937 27.1221 224.672 27.6157 224.359 28.1611C224.044 28.6731 223.728 29.1353 223.41 29.5474C223.124 29.925 222.915 30.1496 222.784 30.2212C222.504 30.7654 222.111 31.3971 221.604 32.1165C221.097 32.8359 220.855 33.4954 220.877 34.095C220.886 34.3282 220.928 34.5435 221.002 34.7408C221.109 34.937 221.167 35.1516 221.176 35.3848L221.13 35.4866Z" fill="white"/>
</svg>
