<svg width="32" height="32" viewBox="0 0 32 32" fill="none" xmlns="http://www.w3.org/2000/svg">
<path fill-rule="evenodd" clip-rule="evenodd" d="M25.9206 6.06875C24.6263 4.7738 23.0886 3.74764 21.3961 3.04935C19.7036 2.35106 17.8896 1.99443 16.0588 2C8.375 2 2.12 8.22375 2.11687 15.875C2.11348 18.3113 2.75568 20.7051 3.97813 22.8125L2 30L9.39062 28.0706C11.4364 29.1789 13.7265 29.7589 16.0531 29.7581H16.0588C23.7419 29.7581 29.9963 23.5338 30 15.8831C30.0047 14.0585 29.6464 12.2511 28.9461 10.5662C28.2457 8.88131 27.2173 7.35251 25.9206 6.06875ZM16.0588 27.4163H16.0537C13.9796 27.4169 11.9432 26.8618 10.1562 25.8088L9.73312 25.5588L5.3475 26.7038L6.51813 22.4481L6.2425 22.0106C5.08274 20.1745 4.46828 18.0467 4.47062 15.875C4.47062 9.51688 9.67125 4.34375 16.0631 4.34375C19.1294 4.33828 22.0722 5.55096 24.2444 7.71508C26.4166 9.8792 27.6403 12.8175 27.6462 15.8838C27.6437 22.2425 22.4456 27.4163 16.0588 27.4163ZM22.4144 18.7794C22.0663 18.6056 20.3519 17.7669 20.0344 17.6513C19.7169 17.5356 19.4825 17.4775 19.2506 17.825C19.0188 18.1725 18.3506 18.95 18.1475 19.1844C17.9444 19.4188 17.7413 19.4444 17.3931 19.2706C17.045 19.0969 15.9219 18.7313 14.5913 17.55C13.5556 16.6306 12.8569 15.4956 12.6538 15.1488C12.4506 14.8019 12.6319 14.6138 12.8062 14.4413C12.9631 14.2856 13.1544 14.0363 13.3287 13.8338C13.5031 13.6313 13.5613 13.4863 13.6769 13.255C13.7925 13.0238 13.735 12.8213 13.6481 12.6481C13.5612 12.475 12.8644 10.7681 12.5744 10.0738C12.2913 9.3975 12.0044 9.48938 11.7906 9.47875C11.5875 9.46875 11.3531 9.46625 11.1225 9.46625C10.9462 9.47084 10.7727 9.51173 10.6129 9.58636C10.4531 9.66099 10.3104 9.76776 10.1938 9.9C9.87438 10.2475 8.97437 11.0875 8.97437 12.7925C8.97437 14.4975 10.2244 16.1475 10.3969 16.3788C10.5694 16.61 12.8531 20.1119 16.3475 21.6138C16.9964 21.8916 17.6594 22.1353 18.3337 22.3438C19.1681 22.6075 19.9275 22.5706 20.5275 22.4813C21.1969 22.3819 22.59 21.6425 22.8794 20.8325C23.1688 20.0225 23.1694 19.3288 23.0825 19.1844C22.9956 19.04 22.7631 18.9525 22.4144 18.7794Z" fill="white"/>
</svg>
