<svg width="27" height="21" viewBox="0 0 27 21" fill="none" xmlns="http://www.w3.org/2000/svg">
<path d="M13.1031 11.6709C15.486 11.6709 17.584 13.4479 17.584 15.8355C17.584 18.223 15.486 20 13.1031 20C10.7201 20 8.62207 18.223 8.62207 15.8355C8.62207 13.4479 10.7201 11.6709 13.1031 11.6709Z" stroke="white" stroke-width="2"/>
<path d="M5.48099 1.00004C7.86394 1.00004 9.96197 2.77701 9.96197 5.16457C9.96197 7.55213 7.86394 9.3291 5.48099 9.3291C3.09803 9.3291 1 7.55213 1 5.16457C1 2.77701 3.09803 1.00004 5.48099 1.00004Z" stroke="white" stroke-width="2"/>
<path d="M20.7256 1.00004C23.1086 1.00004 25.2066 2.77701 25.2066 5.16457C25.2066 7.55213 23.1086 9.3291 20.7256 9.3291C18.3427 9.3291 16.2446 7.55213 16.2446 5.16457C16.2446 2.77701 18.3427 1.00004 20.7256 1.00004Z" stroke="white" stroke-width="2"/>
</svg>
